<svg width="101" height="100" viewBox="0 0 101 100" fill="none" xmlns="http://www.w3.org/2000/svg">
<mask id="mask0" mask-type="alpha" maskUnits="userSpaceOnUse" x="0" y="0" width="101" height="100">
<path d="M7.23376 89.6597C8.07662 89.6597 8.75989 88.9764 8.75989 88.1335C8.75989 87.2907 8.07662 86.6074 7.23376 86.6074C6.39091 86.6074 5.70764 87.2907 5.70764 88.1335C5.70764 88.9764 6.39091 89.6597 7.23376 89.6597Z" fill="white"/>
<path d="M4.18158 46.5468H6.30287C6.60643 46.5468 6.89757 46.4262 7.11222 46.2115C7.32687 45.9969 7.44746 45.7057 7.44746 45.4022C7.44746 45.0986 7.32687 44.8075 7.11222 44.5929C6.89757 44.3782 6.60643 44.2576 6.30287 44.2576H4.18158C3.87801 44.2576 3.58688 44.3782 3.37222 44.5929C3.15757 44.8075 3.03699 45.0986 3.03699 45.4022C3.03699 45.7057 3.15757 45.9969 3.37222 46.2115C3.58688 46.4262 3.87801 46.5468 4.18158 46.5468Z" fill="white"/>
<path d="M11.2325 46.5468H13.3385C13.6421 46.5468 13.9332 46.4262 14.1479 46.2115C14.3625 45.9969 14.4831 45.7057 14.4831 45.4022C14.4831 45.0986 14.3625 44.8075 14.1479 44.5929C13.9332 44.3782 13.6421 44.2576 13.3385 44.2576H11.2325C10.9289 44.2576 10.6378 44.3782 10.4231 44.5929C10.2085 44.8075 10.0879 45.0986 10.0879 45.4022C10.0879 45.7057 10.2085 45.9969 10.4231 46.2115C10.6378 46.4262 10.9289 46.5468 11.2325 46.5468Z" fill="white"/>
<path d="M8.75995 51.1251C9.06351 51.1251 9.35465 51.0045 9.5693 50.7898C9.78396 50.5752 9.90454 50.284 9.90454 49.9805V47.8592C9.90454 47.5556 9.78396 47.2645 9.5693 47.0498C9.35465 46.8352 9.06351 46.7146 8.75995 46.7146C8.45638 46.7146 8.16525 46.8352 7.95059 47.0498C7.73594 47.2645 7.61536 47.5556 7.61536 47.8592V49.9805C7.61931 50.2828 7.74117 50.5717 7.95497 50.7855C8.16877 50.9993 8.45761 51.1211 8.75995 51.1251Z" fill="white"/>
<path d="M8.75995 44.0744C8.91083 44.0765 9.0606 44.0483 9.20039 43.9915C9.34019 43.9347 9.46717 43.8505 9.57387 43.7438C9.68056 43.6371 9.7648 43.5101 9.82159 43.3703C9.87839 43.2305 9.90659 43.0807 9.90454 42.9298V40.8238C9.90454 40.5202 9.78396 40.2291 9.5693 40.0145C9.35465 39.7998 9.06351 39.6792 8.75995 39.6792C8.45638 39.6792 8.16525 39.7998 7.95059 40.0145C7.73594 40.2291 7.61536 40.5202 7.61536 40.8238V42.9298C7.61536 43.2334 7.73594 43.5246 7.95059 43.7392C8.16525 43.9539 8.45638 44.0744 8.75995 44.0744Z" fill="white"/>
<path d="M51.4914 33.5747C48.2466 33.5747 45.0747 34.5369 42.3768 36.3396C39.6789 38.1423 37.5761 40.7045 36.3344 43.7023C35.0927 46.7001 34.7678 49.9987 35.4008 53.1812C36.0338 56.3636 37.5963 59.2868 39.8907 61.5812C42.1851 63.8756 45.1084 65.4381 48.2908 66.0711C51.4732 66.7042 54.7719 66.3792 57.7696 65.1375C60.7674 63.8958 63.3297 61.793 65.1323 59.0951C66.935 56.3972 67.8972 53.2253 67.8972 49.9805C67.8932 45.6307 66.1634 41.4602 63.0876 38.3844C60.0118 35.3085 55.8413 33.5787 51.4914 33.5747ZM51.4914 64.0972C48.6994 64.0972 45.9701 63.2692 43.6486 61.7181C41.3271 60.1669 39.5178 57.9622 38.4493 55.3827C37.3809 52.8033 37.1013 49.9649 37.646 47.2265C38.1907 44.4882 39.5352 41.9728 41.5094 39.9986C43.4837 38.0243 45.999 36.6798 48.7374 36.1351C51.4757 35.5904 54.3141 35.87 56.8936 36.9385C59.4731 38.0069 61.6778 39.8163 63.229 42.1378C64.7801 44.4592 65.608 47.1885 65.608 49.9805C65.604 53.7232 64.1154 57.3115 61.4689 59.958C58.8224 62.6045 55.2341 64.0931 51.4914 64.0972Z" fill="white"/>
<path d="M61.0297 51.5066C61.8725 51.5066 62.5558 50.8233 62.5558 49.9805C62.5558 49.1376 61.8725 48.4543 61.0297 48.4543C60.1868 48.4543 59.5035 49.1376 59.5035 49.9805C59.5035 50.8233 60.1868 51.5066 61.0297 51.5066Z" fill="white"/>
<path d="M41.9531 51.5066C42.796 51.5066 43.4792 50.8233 43.4792 49.9805C43.4792 49.1376 42.796 48.4543 41.9531 48.4543C41.1103 48.4543 40.427 49.1376 40.427 49.9805C40.427 50.8233 41.1103 51.5066 41.9531 51.5066Z" fill="white"/>
<path d="M51.4762 48.8359C49.2939 48.8359 48.1798 47.8592 48.1798 45.9362C48.2009 45.5283 48.3037 45.1288 48.482 44.7613C48.6604 44.3939 48.9106 44.0659 49.218 43.797C49.5254 43.528 49.8837 43.3235 50.2716 43.1955C50.6595 43.0675 51.0691 43.0187 51.4762 43.0519C52.1127 43.0423 52.7386 43.2154 53.2796 43.5509C53.8206 43.8863 54.254 44.3699 54.5285 44.9443C54.5866 45.0861 54.6727 45.2148 54.7816 45.3227C54.8905 45.4306 55.02 45.5156 55.1623 45.5725C55.3047 45.6295 55.457 45.6572 55.6103 45.6542C55.7635 45.6511 55.9146 45.6173 56.0546 45.5547C56.1978 45.4983 56.328 45.4132 56.4371 45.3046C56.5463 45.196 56.632 45.0663 56.6892 44.9234C56.7464 44.7805 56.7737 44.6274 56.7696 44.4735C56.7654 44.3196 56.7298 44.1682 56.665 44.0286C56.3075 43.2024 55.7486 42.479 55.0395 41.9245C54.3303 41.37 53.4936 41.0021 52.6056 40.8543V39.6486C52.6056 39.3451 52.4849 39.0539 52.2703 38.8393C52.0556 38.6246 51.7645 38.504 51.461 38.504C51.1574 38.504 50.8663 38.6246 50.6516 38.8393C50.437 39.0539 50.3164 39.3451 50.3164 39.6486V40.839C49.1031 41.0368 47.9965 41.6506 47.1862 42.575C46.3759 43.4995 45.9125 44.677 45.8754 45.9057C45.8754 48.4086 47.4015 51.0945 51.461 51.0945C53.6281 51.0945 54.7726 52.0865 54.7726 53.9789C54.7535 54.3882 54.6522 54.7894 54.4747 55.1586C54.2972 55.5278 54.0472 55.8575 53.7396 56.1281C53.432 56.3987 53.0731 56.6046 52.6842 56.7335C52.2954 56.8624 51.8845 56.9118 51.4762 56.8786C50.8401 56.8863 50.215 56.7124 49.6743 56.3771C49.1337 56.0419 48.6999 55.5593 48.424 54.9861C48.3675 54.8429 48.2824 54.7128 48.1739 54.6036C48.0653 54.4945 47.9356 54.4087 47.7927 54.3515C47.6497 54.2944 47.4966 54.267 47.3428 54.2712C47.1889 54.2753 47.0375 54.3109 46.8978 54.3757C46.756 54.4339 46.6273 54.52 46.5194 54.6289C46.4115 54.7377 46.3265 54.8672 46.2696 55.0096C46.2126 55.1519 46.1849 55.3042 46.188 55.4575C46.191 55.6108 46.2248 55.7619 46.2874 55.9018C46.6504 56.7214 47.209 57.4394 47.9141 57.9928C48.6192 58.5463 49.4493 58.9183 50.3316 59.0762V60.2666C50.3316 60.5701 50.4522 60.8613 50.6669 61.0759C50.8815 61.2906 51.1726 61.4111 51.4762 61.4111C51.7798 61.4111 52.0709 61.2906 52.2856 61.0759C52.5002 60.8613 52.6208 60.5701 52.6208 60.2666V59.0914C53.8394 58.8963 54.9515 58.2817 55.7652 57.3538C56.5788 56.426 57.0428 55.243 57.0771 54.0094C57.0771 51.5066 55.612 48.8359 51.4762 48.8359Z" fill="white"/>
<path d="M66.7526 25.9441H57.5959C57.2923 25.9441 57.0012 26.0647 56.7865 26.2794C56.5719 26.494 56.4513 26.7851 56.4513 27.0887C56.4513 27.3922 56.5719 27.6834 56.7865 27.898C57.0012 28.1127 57.2923 28.2333 57.5959 28.2333H66.7526C67.0562 28.2333 67.3473 28.1127 67.562 27.898C67.7766 27.6834 67.8972 27.3922 67.8972 27.0887C67.8972 26.7851 67.7766 26.494 67.562 26.2794C67.3473 26.0647 67.0562 25.9441 66.7526 25.9441Z" fill="white"/>
<path d="M36.2302 28.2333H51.4914C51.795 28.2333 52.0861 28.1127 52.3007 27.898C52.5154 27.6834 52.636 27.3922 52.636 27.0887C52.636 26.7851 52.5154 26.494 52.3007 26.2794C52.0861 26.0647 51.795 25.9441 51.4914 25.9441H36.2302C35.9266 25.9441 35.6355 26.0647 35.4208 26.2794C35.2062 26.494 35.0856 26.7851 35.0856 27.0887C35.0856 27.3922 35.2062 27.6834 35.4208 27.898C35.6355 28.1127 35.9266 28.2333 36.2302 28.2333Z" fill="white"/>
<path d="M42.3347 20.6027H60.6481C60.9517 20.6027 61.2428 20.4821 61.4575 20.2674C61.6721 20.0528 61.7927 19.7616 61.7927 19.4581C61.7927 19.1545 61.6721 18.8634 61.4575 18.6488C61.2428 18.4341 60.9517 18.3135 60.6481 18.3135H42.3347C42.0311 18.3135 41.74 18.4341 41.5253 18.6488C41.3106 18.8634 41.1901 19.1545 41.1901 19.4581C41.1901 19.7616 41.3106 20.0528 41.5253 20.2674C41.74 20.4821 42.0311 20.6027 42.3347 20.6027Z" fill="white"/>
<path d="M98.1907 74.9632C97.6771 74.5865 97.0812 74.3373 96.4523 74.2365C95.8233 74.1357 95.1794 74.186 94.5738 74.3832C94.5895 73.0294 94.1546 71.7086 93.3376 70.629C92.7995 69.9882 92.1229 69.4781 91.3589 69.1371C90.5949 68.7961 89.7634 68.633 88.9271 68.6603H88.8355C87.9462 68.6806 87.0635 68.8191 86.2107 69.0723V2.67071C86.2107 1.9624 85.9293 1.28311 85.4284 0.78225C84.9276 0.281393 84.2483 0 83.5399 0H19.4428C18.7345 0 18.0552 0.281393 17.5543 0.78225C17.0535 1.28311 16.7721 1.9624 16.7721 2.67071V65.6538H13.3536H1.14459C0.841027 65.6538 0.549889 65.7744 0.335237 65.9891C0.120584 66.2037 0 66.4949 0 66.7984V94.2686C0.0039526 94.571 0.125813 94.8598 0.339614 95.0736C0.553416 95.2874 0.842256 95.4093 1.14459 95.4132H13.3536C23.6577 98.4419 34.3416 99.9836 45.0816 99.9916C59.0484 100.185 72.8601 97.0458 85.3713 90.8348L85.9512 90.5296C89.6202 88.6037 93.1175 86.3674 96.4051 83.8452C96.7561 83.601 99.8694 81.4339 100.022 78.6259C100.046 77.9111 99.8916 77.2015 99.5718 76.5618C99.2519 75.9221 98.7772 75.3726 98.1907 74.9632ZM12.1937 93.0935H2.27391V67.9125H12.1937V93.0935ZM86.2107 71.4531C87.0698 71.169 87.9626 70.9996 88.8661 70.9495C89.3603 70.9164 89.8555 70.9999 90.3115 71.1935C90.7674 71.387 91.1715 71.685 91.4911 72.0635C91.8044 72.5004 92.0277 72.9952 92.1482 73.5192C92.2687 74.0432 92.284 74.5859 92.193 75.1158C91.1247 75.5126 89.9496 75.9856 88.5761 76.5503L86.1496 77.5423L86.2107 71.4531ZM19.0613 2.67071C19.0613 2.56953 19.1014 2.47251 19.173 2.40096C19.2445 2.32941 19.3416 2.28918 19.4428 2.28918H83.5399C83.6411 2.28918 83.7381 2.32941 83.8097 2.40096C83.8812 2.47251 83.9215 2.56953 83.9215 2.67071V78.4122C81.907 79.1752 79.6331 79.9383 77.0539 80.7777V17.9319C77.0539 17.6284 76.9333 17.3373 76.7187 17.1226C76.504 16.908 76.2129 16.7873 75.9093 16.7873C74.1891 16.7873 72.5394 16.104 71.323 14.8877C70.1066 13.6713 69.4233 12.0215 69.4233 10.3013C69.4233 9.99776 69.3027 9.70667 69.0881 9.49202C68.8734 9.27737 68.5823 9.15674 68.2787 9.15674H34.704C34.5531 9.15468 34.4034 9.18289 34.2636 9.23968C34.1238 9.29648 33.9968 9.38071 33.8901 9.48741C33.7834 9.5941 33.6992 9.72113 33.6424 9.86093C33.5856 10.0007 33.5574 10.1504 33.5594 10.3013C33.5554 12.0203 32.8708 13.6677 31.6553 14.8832C30.4398 16.0987 28.7924 16.7833 27.0734 16.7873C26.9225 16.7853 26.7728 16.8135 26.633 16.8703C26.4932 16.9271 26.3662 17.0113 26.2595 17.118C26.1528 17.2247 26.0686 17.3517 26.0118 17.4915C25.955 17.6313 25.9268 17.7811 25.9288 17.9319V65.9743C23.8991 65.8522 21.6251 65.7607 19.0613 65.6996V2.67071ZM68.3245 74.7953C66.9897 73.5364 65.2143 72.8514 63.3799 72.8876C49.1259 73.0555 46.5925 71.6362 43.8302 70.0033C41.2816 68.4772 38.4888 66.951 28.218 66.1269V19.0002C30.1424 18.7393 31.9265 17.8496 33.2927 16.4696C34.659 15.0895 35.5308 13.2965 35.7723 11.3696H67.2257C67.4647 13.2975 68.3357 15.0918 69.7024 16.4724C71.0691 17.8529 72.8547 18.7418 74.78 19.0002V81.4644C73.1623 81.9223 71.453 82.3801 69.6064 82.8074C69.9275 82.1913 70.1196 81.5163 70.1711 80.8235C70.3187 79.7449 70.23 78.6471 69.9112 77.6062C69.5923 76.5653 69.0509 75.6061 68.3245 74.7953ZM97.6566 78.4275C97.5803 79.8468 95.7032 81.4797 95.0011 81.907C90.3285 85.4671 85.2458 88.4542 79.862 90.8043C50.8657 103.38 19.7633 94.9554 14.4829 93.3529V67.9125H16.7721H19.0613C21.6404 67.9125 23.9143 68.0651 25.9288 68.1872L28.218 68.3398C37.802 69.1028 40.427 70.5679 42.6857 71.9109C45.8142 73.7118 48.5459 75.2684 63.4409 75.1005C64.6476 75.0795 65.8165 75.5219 66.7068 76.3367C67.1906 76.9238 67.5442 77.607 67.7441 78.341C67.9441 79.0751 67.9859 79.8431 67.8667 80.5945C67.7751 81.9375 66.7221 83.0058 64.7381 83.7689C61.2738 84.8219 54.4368 85.7071 41.4342 83.9978C41.2837 83.9764 41.1304 83.9852 40.9833 84.0236C40.8363 84.062 40.6984 84.1294 40.5776 84.2218C40.4568 84.3141 40.3557 84.4296 40.28 84.5614C40.2044 84.6933 40.1558 84.8389 40.137 84.9898C40.1022 85.2907 40.1865 85.5932 40.3719 85.8328C40.5572 86.0723 40.829 86.2299 41.129 86.2717C45.5442 86.8867 49.9944 87.2181 54.452 87.2637C58.1174 87.3525 61.7766 86.9157 65.318 85.9665C68.8129 85.3103 71.9414 84.5625 74.7647 83.7689L77.0539 83.1127C79.6178 82.3343 81.8917 81.5865 83.9215 80.7777C84.7151 80.4877 85.4476 80.1825 86.2107 79.8925L89.507 78.5648L91.3995 77.8017C92.4831 77.3592 93.4445 76.9929 94.2533 76.7487C95.4437 76.3977 96.2983 76.3061 96.7257 76.6572C97.7482 77.5423 97.7481 78.1833 97.6566 78.4275Z" fill="white"/>
<path d="M89.6443 32.8116H91.7504C92.054 32.8116 92.3451 32.6911 92.5598 32.4764C92.7744 32.2618 92.895 31.9706 92.895 31.6671C92.895 31.3635 92.7744 31.0724 92.5598 30.8577C92.3451 30.6431 92.054 30.5225 91.7504 30.5225H89.6443C89.3408 30.5225 89.0496 30.6431 88.835 30.8577C88.6203 31.0724 88.4998 31.3635 88.4998 31.6671C88.4998 31.9706 88.6203 32.2618 88.835 32.4764C89.0496 32.6911 89.3408 32.8116 89.6443 32.8116Z" fill="white"/>
<path d="M96.6797 32.8116H98.8011C99.1046 32.8116 99.3958 32.6911 99.6104 32.4764C99.8251 32.2618 99.9457 31.9706 99.9457 31.6671C99.9457 31.3635 99.8251 31.0724 99.6104 30.8577C99.3958 30.6431 99.1046 30.5225 98.8011 30.5225H96.6797C96.3762 30.5225 96.085 30.6431 95.8704 30.8577C95.6557 31.0724 95.5352 31.3635 95.5352 31.6671C95.5352 31.9706 95.6557 32.2618 95.8704 32.4764C96.085 32.6911 96.3762 32.8116 96.6797 32.8116Z" fill="white"/>
<path d="M94.2227 37.39C94.5251 37.386 94.8139 37.2641 95.0277 37.0503C95.2415 36.8365 95.3634 36.5477 95.3673 36.2454V34.1241C95.3673 33.8205 95.2467 33.5294 95.0321 33.3147C94.8174 33.1001 94.5263 32.9795 94.2227 32.9795C93.9192 32.9795 93.628 33.1001 93.4134 33.3147C93.1987 33.5294 93.0781 33.8205 93.0781 34.1241V36.2454C93.0781 36.5489 93.1987 36.8401 93.4134 37.0547C93.628 37.2694 93.9192 37.39 94.2227 37.39Z" fill="white"/>
<path d="M94.2227 30.3393C94.5251 30.3354 94.8139 30.2135 95.0277 29.9997C95.2415 29.7859 95.3634 29.4971 95.3673 29.1947V27.0887C95.3673 26.7851 95.2467 26.494 95.0321 26.2794C94.8174 26.0647 94.5263 25.9441 94.2227 25.9441C93.9192 25.9441 93.628 26.0647 93.4134 26.2794C93.1987 26.494 93.0781 26.7851 93.0781 27.0887V29.1947C93.0781 29.4983 93.1987 29.7894 93.4134 30.0041C93.628 30.2187 93.9192 30.3393 94.2227 30.3393Z" fill="white"/>
<path d="M89.6443 58.7557H91.7504C92.054 58.7557 92.3451 58.6352 92.5598 58.4205C92.7744 58.2058 92.895 57.9147 92.895 57.6111C92.895 57.3076 92.7744 57.0165 92.5598 56.8018C92.3451 56.5872 92.054 56.4666 91.7504 56.4666H89.6443C89.3408 56.4666 89.0496 56.5872 88.835 56.8018C88.6203 57.0165 88.4998 57.3076 88.4998 57.6111C88.4998 57.9147 88.6203 58.2058 88.835 58.4205C89.0496 58.6352 89.3408 58.7557 89.6443 58.7557Z" fill="white"/>
<path d="M96.6797 58.7557H98.8011C99.1046 58.7557 99.3958 58.6352 99.6104 58.4205C99.8251 58.2058 99.9457 57.9147 99.9457 57.6111C99.9457 57.3076 99.8251 57.0165 99.6104 56.8018C99.3958 56.5872 99.1046 56.4666 98.8011 56.4666H96.6797C96.3762 56.4666 96.085 56.5872 95.8704 56.8018C95.6557 57.0165 95.5352 57.3076 95.5352 57.6111C95.5352 57.9147 95.6557 58.2058 95.8704 58.4205C96.085 58.6352 96.3762 58.7557 96.6797 58.7557Z" fill="white"/>
<path d="M94.2227 63.3341C94.5251 63.3301 94.8139 63.2082 95.0277 62.9944C95.2415 62.7806 95.3634 62.4918 95.3673 62.1895V60.0682C95.3673 59.7646 95.2467 59.4735 95.0321 59.2588C94.8174 59.0442 94.5263 58.9236 94.2227 58.9236C93.9192 58.9236 93.628 59.0442 93.4134 59.2588C93.1987 59.4735 93.0781 59.7646 93.0781 60.0682V62.1895C93.0781 62.493 93.1987 62.7842 93.4134 62.9988C93.628 63.2135 93.9192 63.3341 94.2227 63.3341Z" fill="white"/>
<path d="M94.2228 56.2834C94.5264 56.2834 94.8175 56.1628 95.0322 55.9482C95.2468 55.7335 95.3674 55.4424 95.3674 55.1388V53.0328C95.3674 52.7292 95.2468 52.4381 95.0322 52.2235C94.8175 52.0088 94.5264 51.8882 94.2228 51.8882C93.9193 51.8882 93.6281 52.0088 93.4135 52.2235C93.1988 52.4381 93.0782 52.7292 93.0782 53.0328V55.1388C93.0762 55.2897 93.1043 55.4395 93.1611 55.5793C93.2179 55.7191 93.3022 55.8461 93.4089 55.9528C93.5156 56.0594 93.6426 56.1437 93.7824 56.2005C93.9222 56.2573 94.0719 56.2855 94.2228 56.2834Z" fill="white"/>
<path d="M4.18158 17.5352H6.30287C6.60643 17.5352 6.89757 17.4146 7.11222 17.1999C7.32687 16.9853 7.44746 16.6941 7.44746 16.3906C7.44746 16.087 7.32687 15.7959 7.11222 15.5812C6.89757 15.3666 6.60643 15.246 6.30287 15.246H4.18158C3.87801 15.246 3.58688 15.3666 3.37222 15.5812C3.15757 15.7959 3.03699 16.087 3.03699 16.3906C3.03699 16.6941 3.15757 16.9853 3.37222 17.1999C3.58688 17.4146 3.87801 17.5352 4.18158 17.5352Z" fill="white"/>
<path d="M11.2325 17.5352H13.3385C13.6421 17.5352 13.9332 17.4146 14.1479 17.1999C14.3625 16.9853 14.4831 16.6941 14.4831 16.3906C14.4831 16.087 14.3625 15.7959 14.1479 15.5812C13.9332 15.3666 13.6421 15.246 13.3385 15.246H11.2325C10.9289 15.246 10.6378 15.3666 10.4231 15.5812C10.2085 15.7959 10.0879 16.087 10.0879 16.3906C10.0879 16.6941 10.2085 16.9853 10.4231 17.1999C10.6378 17.4146 10.9289 17.5352 11.2325 17.5352Z" fill="white"/>
<path d="M8.75995 22.1135C8.91083 22.1156 9.0606 22.0873 9.20039 22.0306C9.34019 21.9738 9.46717 21.8895 9.57387 21.7828C9.68056 21.6761 9.7648 21.5491 9.82159 21.4093C9.87839 21.2695 9.90659 21.1198 9.90454 20.9689V18.8629C9.90454 18.5593 9.78396 18.2682 9.5693 18.0535C9.35465 17.8388 9.06351 17.7183 8.75995 17.7183C8.45638 17.7183 8.16525 17.8388 7.95059 18.0535C7.73594 18.2682 7.61536 18.5593 7.61536 18.8629V20.9689C7.61536 21.2725 7.73594 21.5636 7.95059 21.7783C8.16525 21.9929 8.45638 22.1135 8.75995 22.1135Z" fill="white"/>
<path d="M8.75995 15.0781C9.06351 15.0781 9.35465 14.9575 9.5693 14.7428C9.78396 14.5282 9.90454 14.237 9.90454 13.9335V11.8122C9.90454 11.5086 9.78396 11.2175 9.5693 11.0028C9.35465 10.7882 9.06351 10.6676 8.75995 10.6676C8.45638 10.6676 8.16525 10.7882 7.95059 11.0028C7.73594 11.2175 7.61536 11.5086 7.61536 11.8122V13.9335C7.61931 14.2358 7.74117 14.5247 7.95497 14.7385C8.16877 14.9523 8.45761 15.0741 8.75995 15.0781Z" fill="white"/>
</mask>
<g mask="url(#mask0)">
<rect width="100" height="100" fill="url(#paint0_linear)" style="mix-blend-mode:darken"/>
</g>
<defs>
<linearGradient id="paint0_linear" x1="4.46428" y1="100" x2="100" y2="14.9425" gradientUnits="userSpaceOnUse">
<stop stop-color="#25BED2"/>
<stop offset="0.385417" stop-color="#2686E9"/>
<stop offset="0.739583" stop-color="#8B5BC5"/>
<stop offset="1" stop-color="#FF92CC"/>
</linearGradient>
</defs>
</svg>
