<svg width="101" height="100" viewBox="0 0 101 100" fill="none" xmlns="http://www.w3.org/2000/svg">
<mask id="mask0" mask-type="alpha" maskUnits="userSpaceOnUse" x="0" y="0" width="101" height="100">
<path d="M19.8899 58.07C21.571 58.07 23.2144 57.5714 24.6122 56.6374C26.0101 55.7035 27.0995 54.3759 27.7429 52.8228C28.3862 51.2696 28.5545 49.5605 28.2266 47.9117C27.8986 46.2628 27.0891 44.7483 25.9003 43.5595C24.7116 42.3708 23.197 41.5612 21.5482 41.2333C19.8993 40.9053 18.1903 41.0736 16.6371 41.717C15.0839 42.3603 13.7564 43.4498 12.8224 44.8476C11.8884 46.2454 11.3899 47.8888 11.3899 49.57C11.3952 51.8227 12.2924 53.9816 13.8853 55.5745C15.4782 57.1674 17.6372 58.0647 19.8899 58.07ZM19.8899 43.07C21.1755 43.07 22.4322 43.4512 23.5011 44.1654C24.57 44.8796 25.4032 45.8948 25.8951 47.0825C26.3871 48.2702 26.5158 49.5772 26.265 50.838C26.0142 52.0989 25.3951 53.2571 24.4861 54.1662C23.577 55.0752 22.4188 55.6942 21.158 55.9451C19.8971 56.1959 18.5902 56.0671 17.4025 55.5752C16.2147 55.0832 15.1996 54.2501 14.4854 53.1812C13.7711 52.1122 13.3899 50.8555 13.3899 49.57C13.3925 47.8469 14.0782 46.1951 15.2966 44.9767C16.515 43.7583 18.1668 43.0726 19.8899 43.07Z" fill="white"/>
<path d="M41.3899 49.57C41.3899 51.2511 41.8884 52.8945 42.8224 54.2923C43.7564 55.6901 45.0839 56.7796 46.6371 57.4229C48.1903 58.0663 49.8993 58.2346 51.5482 57.9066C53.197 57.5786 54.7116 56.7691 55.9003 55.5804C57.0891 54.3916 57.8986 52.8771 58.2266 51.2282C58.5545 49.5794 58.3862 47.8703 57.7429 46.3171C57.0995 44.764 56.0101 43.4364 54.6122 42.5025C53.2144 41.5685 51.571 41.0699 49.8899 41.0699C47.6364 41.0726 45.4759 41.969 43.8824 43.5625C42.2889 45.1559 41.3925 47.3164 41.3899 49.57ZM49.8899 43.0699C51.1755 43.0699 52.4322 43.4512 53.5011 44.1654C54.57 44.8796 55.4032 45.8948 55.8951 47.0825C56.3871 48.2702 56.5158 49.5772 56.265 50.838C56.0142 52.0989 55.3951 53.2571 54.4861 54.1661C53.577 55.0752 52.4188 55.6942 51.158 55.945C49.8971 56.1958 48.5902 56.0671 47.4025 55.5752C46.2147 55.0832 45.1996 54.2501 44.4854 53.1812C43.7711 52.1122 43.3899 50.8555 43.3899 49.57C43.3925 47.8469 44.0782 46.1951 45.2966 44.9767C46.515 43.7583 48.1668 43.0726 49.8899 43.0699Z" fill="white"/>
<path d="M71.3899 49.57C71.3899 51.2511 71.8884 52.8945 72.8224 54.2923C73.7564 55.6901 75.0839 56.7796 76.6371 57.4229C78.1903 58.0663 79.8993 58.2346 81.5482 57.9066C83.197 57.5786 84.7116 56.7691 85.9003 55.5804C87.0891 54.3916 87.8986 52.8771 88.2266 51.2282C88.5545 49.5794 88.3862 47.8703 87.7429 46.3171C87.0995 44.764 86.0101 43.4364 84.6122 42.5025C83.2144 41.5685 81.571 41.0699 79.8899 41.0699C77.6364 41.0726 75.4759 41.969 73.8824 43.5625C72.2889 45.1559 71.3925 47.3164 71.3899 49.57ZM86.3899 49.57C86.3899 50.8555 86.0087 52.1122 85.2944 53.1812C84.5802 54.2501 83.565 55.0832 82.3773 55.5752C81.1896 56.0671 79.8827 56.1958 78.6218 55.945C77.3609 55.6942 76.2027 55.0752 75.2937 54.1661C74.3847 53.2571 73.7656 52.0989 73.5148 50.838C73.264 49.5772 73.3927 48.2702 73.8847 47.0825C74.3767 45.8948 75.2098 44.8796 76.2787 44.1654C77.3476 43.4512 78.6043 43.0699 79.8899 43.0699C81.613 43.0726 83.2647 43.7583 84.4832 44.9767C85.7016 46.1951 86.3872 47.8469 86.3899 49.57Z" fill="white"/>
<path d="M90.3 60.58H69.7C68.0578 60.5868 66.4442 61.01 65.01 61.81C63.5716 61.0025 61.9496 60.5789 60.3 60.58H39.7C38.0578 60.5868 36.4442 61.01 35.01 61.81C33.5716 61.0025 31.9496 60.5789 30.3 60.58H9.70001C7.12822 60.5826 4.66252 61.6054 2.84399 63.424C1.02546 65.2425 0.00264724 67.7082 0 70.28V94.36C0.0129319 95.5237 0.431426 96.6465 1.18335 97.5348C1.93527 98.4231 2.97357 99.0213 4.1192 99.2263C5.26483 99.4312 6.44608 99.2301 7.45935 98.6576C8.47262 98.0851 9.25443 97.177 9.67004 96.09H30.32C30.6798 97.0386 31.3198 97.8554 32.1548 98.4317C32.9898 99.008 33.9804 99.3167 34.995 99.3167C36.0096 99.3167 37.0002 99.008 37.8353 98.4317C38.6703 97.8554 39.3102 97.0386 39.67 96.09H60.32C60.6798 97.0386 61.3198 97.8554 62.1548 98.4317C62.9898 99.008 63.9804 99.3167 64.995 99.3167C66.0096 99.3167 67.0002 99.008 67.8353 98.4317C68.6703 97.8554 69.3102 97.0386 69.67 96.09H90.32C90.7219 97.1973 91.5018 98.1272 92.5223 98.7157C93.5428 99.3041 94.7383 99.5134 95.8979 99.3066C97.0576 99.0997 98.1071 98.4901 98.8613 97.5851C99.6154 96.6801 100.026 95.5379 100.02 94.36V70.28C100.015 67.7055 98.9883 65.2383 97.166 63.4198C95.3437 61.6013 92.8745 60.58 90.3 60.58ZM38.02 94.36C38.02 95.1556 37.704 95.9187 37.1414 96.4813C36.5787 97.0439 35.8157 97.36 35.02 97.36C34.2244 97.36 33.4613 97.0439 32.8987 96.4813C32.3361 95.9187 32.02 95.1556 32.02 94.36V71.15C32.02 70.8847 31.9146 70.6304 31.7271 70.4428C31.5396 70.2553 31.2852 70.15 31.02 70.15C30.7548 70.15 30.5005 70.2553 30.3129 70.4428C30.1254 70.6304 30.02 70.8847 30.02 71.15V94.1499H10.02V71.15C10.02 70.8847 9.91465 70.6304 9.72711 70.4428C9.53958 70.2553 9.28524 70.15 9.02002 70.15C8.7548 70.15 8.50046 70.2553 8.31293 70.4428C8.12539 70.6304 8.02002 70.8847 8.02002 71.15V94.36C8.02002 95.1556 7.70397 95.9187 7.14136 96.4813C6.57875 97.0439 5.81567 97.36 5.02002 97.36C4.22437 97.36 3.46129 97.0439 2.89868 96.4813C2.33607 95.9187 2.02002 95.1556 2.02002 94.36V70.28C2.02267 68.2386 2.83474 66.2816 4.2782 64.8382C5.72165 63.3947 7.67868 62.5826 9.72003 62.58H30.32C32.3605 62.5852 34.316 63.3982 35.7589 64.8411C37.2018 66.284 38.0147 68.2394 38.02 70.28V94.36ZM68.02 94.36C68.02 95.1556 67.704 95.9187 67.1414 96.4813C66.5788 97.0439 65.8157 97.36 65.02 97.36C64.2244 97.36 63.4613 97.0439 62.8987 96.4813C62.3361 95.9187 62.02 95.1556 62.02 94.36V71.15C62.02 70.8847 61.9146 70.6304 61.7271 70.4428C61.5396 70.2553 61.2852 70.15 61.02 70.15C60.7548 70.15 60.5005 70.2553 60.3129 70.4428C60.1254 70.6304 60.02 70.8847 60.02 71.15V94.1499H40.02V70.28C40.0191 68.9379 39.7385 67.6107 39.1961 66.3831C38.6538 65.1555 37.8615 64.0544 36.87 63.15C37.775 62.78 38.7424 62.5866 39.72 62.58H48.44V85.24C48.44 85.5052 48.5454 85.7595 48.7329 85.9471C48.9204 86.1346 49.1748 86.24 49.44 86.24C49.7052 86.24 49.9596 86.1346 50.1472 85.9471C50.3347 85.7595 50.44 85.5052 50.44 85.24V62.58H60.32C62.3605 62.5852 64.316 63.3982 65.7589 64.8411C67.2018 66.284 68.0147 68.2394 68.02 70.28V94.36ZM98.02 85.85V94.36C98.02 95.1556 97.704 95.9187 97.1414 96.4813C96.5788 97.0439 95.8157 97.36 95.02 97.36C94.2244 97.36 93.4613 97.0439 92.8987 96.4813C92.3361 95.9187 92.02 95.1556 92.02 94.36V71.15C92.02 70.8847 91.9146 70.6304 91.7271 70.4428C91.5396 70.2553 91.2852 70.15 91.02 70.15C90.7548 70.15 90.5005 70.2553 90.3129 70.4428C90.1254 70.6304 90.02 70.8847 90.02 71.15V94.1499H80.02V92.66C80.02 92.3947 79.9146 92.1404 79.7271 91.9529C79.5396 91.7653 79.2852 91.66 79.02 91.66C78.7548 91.66 78.5005 91.7653 78.3129 91.9529C78.1254 92.1404 78.02 92.3947 78.02 92.66V94.1199H70.02V70.28C70.0191 68.9379 69.7385 67.6107 69.1961 66.3831C68.6538 65.1555 67.8615 64.0544 66.87 63.15C67.775 62.78 68.7424 62.5866 69.72 62.58H78.02V63.58C78.02 63.8452 78.1254 64.0995 78.3129 64.2871C78.5005 64.4746 78.7548 64.58 79.02 64.58C79.2852 64.58 79.5396 64.4746 79.7271 64.2871C79.9146 64.0995 80.02 63.8452 80.02 63.58V62.58H90.35C92.3906 62.5852 94.346 63.3982 95.7889 64.8411C97.2318 66.284 98.0448 68.2394 98.05 70.28V85.88L98.02 85.85Z" fill="white"/>
<path d="M79.02 67.13C78.7548 67.13 78.5005 67.2354 78.3129 67.4229C78.1254 67.6104 78.02 67.8648 78.02 68.13V71.76C78.02 72.0252 78.1254 72.2796 78.3129 72.4671C78.5005 72.6546 78.7548 72.76 79.02 72.76C79.2852 72.76 79.5396 72.6546 79.7271 72.4671C79.9146 72.2796 80.02 72.0252 80.02 71.76V68.13C80.02 67.8648 79.9146 67.6104 79.7271 67.4229C79.5396 67.2354 79.2852 67.13 79.02 67.13Z" fill="white"/>
<path d="M79.02 83.48C78.7548 83.48 78.5005 83.5853 78.3129 83.7729C78.1254 83.9604 78.02 84.2148 78.02 84.48V88.12C78.02 88.3852 78.1254 88.6396 78.3129 88.8271C78.5005 89.0146 78.7548 89.12 79.02 89.12C79.2852 89.12 79.5396 89.0146 79.7271 88.8271C79.9146 88.6396 80.02 88.3852 80.02 88.12V84.48C80.02 84.2148 79.9146 83.9604 79.7271 83.7729C79.5396 83.5853 79.2852 83.48 79.02 83.48Z" fill="white"/>
<path d="M79.02 75.3C78.7548 75.3 78.5005 75.4054 78.3129 75.5929C78.1254 75.7805 78.02 76.0348 78.02 76.3V79.94C78.02 80.2053 78.1254 80.4596 78.3129 80.6472C78.5005 80.8347 78.7548 80.94 79.02 80.94C79.2852 80.94 79.5396 80.8347 79.7271 80.6472C79.9146 80.4596 80.02 80.2053 80.02 79.94V76.3C80.02 76.0348 79.9146 75.7805 79.7271 75.5929C79.5396 75.4054 79.2852 75.3 79.02 75.3Z" fill="white"/>
<path d="M19.8899 66.41C19.5932 66.41 19.3032 66.498 19.0565 66.6628C18.8099 66.8276 18.6176 67.0619 18.5041 67.336C18.3906 67.6101 18.3608 67.9117 18.4187 68.2027C18.4766 68.4936 18.6195 68.7609 18.8292 68.9707C19.039 69.1805 19.3063 69.3233 19.5973 69.3812C19.8883 69.4391 20.1898 69.4094 20.4639 69.2959C20.738 69.1823 20.9723 68.9901 21.1371 68.7434C21.3019 68.4967 21.3899 68.2067 21.3899 67.91C21.3899 67.5122 21.2319 67.1307 20.9506 66.8494C20.6693 66.5681 20.2877 66.41 19.8899 66.41Z" fill="white"/>
<path d="M19.8899 73.41C19.5932 73.41 19.3032 73.498 19.0565 73.6628C18.8099 73.8276 18.6176 74.0619 18.5041 74.336C18.3906 74.6101 18.3608 74.9117 18.4187 75.2027C18.4766 75.4936 18.6195 75.7609 18.8292 75.9707C19.039 76.1805 19.3063 76.3233 19.5973 76.3812C19.8883 76.4391 20.1898 76.4094 20.4639 76.2959C20.738 76.1823 20.9723 75.9901 21.1371 75.7434C21.3019 75.4967 21.3899 75.2067 21.3899 74.91C21.3899 74.5122 21.2319 74.1307 20.9506 73.8494C20.6693 73.5681 20.2877 73.41 19.8899 73.41Z" fill="white"/>
<path d="M19.8899 80.41C19.5932 80.41 19.3032 80.498 19.0565 80.6628C18.8099 80.8276 18.6176 81.0619 18.5041 81.336C18.3906 81.6101 18.3608 81.9117 18.4187 82.2027C18.4766 82.4936 18.6195 82.7609 18.8292 82.9707C19.039 83.1805 19.3063 83.3233 19.5973 83.3812C19.8883 83.4391 20.1898 83.4094 20.4639 83.2959C20.738 83.1823 20.9723 82.9901 21.1371 82.7434C21.3019 82.4967 21.3899 82.2067 21.3899 81.91C21.3899 81.5122 21.2319 81.1307 20.9506 80.8494C20.6693 80.5681 20.2877 80.41 19.8899 80.41Z" fill="white"/>
<path d="M19.8899 87.41C19.5932 87.41 19.3032 87.498 19.0565 87.6628C18.8099 87.8276 18.6176 88.0619 18.5041 88.336C18.3906 88.6101 18.3608 88.9117 18.4187 89.2027C18.4766 89.4936 18.6195 89.7609 18.8292 89.9707C19.039 90.1805 19.3063 90.3233 19.5973 90.3812C19.8883 90.4391 20.1898 90.4094 20.4639 90.2959C20.738 90.1823 20.9723 89.9901 21.1371 89.7434C21.3019 89.4967 21.3899 89.2067 21.3899 88.91C21.3899 88.5122 21.2319 88.1307 20.9506 87.8494C20.6693 87.5681 20.2877 87.41 19.8899 87.41Z" fill="white"/>
<path d="M34.78 17C36.4612 17 38.1046 16.5015 39.5024 15.5675C40.9002 14.6335 41.9897 13.306 42.633 11.7528C43.2763 10.1996 43.4447 8.49058 43.1167 6.84174C42.7887 5.1929 41.9792 3.67835 40.7904 2.4896C39.6017 1.30085 38.0871 0.491302 36.4383 0.163328C34.7895 -0.164647 33.0804 0.00368643 31.5272 0.647031C29.974 1.29038 28.6465 2.37984 27.7125 3.77766C26.7785 5.17548 26.28 6.81886 26.28 8.50001C26.2827 10.7535 27.179 12.914 28.7725 14.5075C30.366 16.101 32.5265 16.9974 34.78 17ZM34.78 2.00001C36.0656 2.00001 37.3223 2.38123 38.3912 3.09546C39.4602 3.80969 40.2932 4.82484 40.7852 6.01256C41.2772 7.20028 41.406 8.50722 41.1552 9.7681C40.9043 11.029 40.2853 12.1872 39.3762 13.0962C38.4672 14.0052 37.309 14.6243 36.0481 14.8751C34.7872 15.1259 33.4803 14.9972 32.2926 14.5052C31.1049 14.0133 30.0897 13.1801 29.3755 12.1112C28.6613 11.0423 28.28 9.78558 28.28 8.50001C28.2827 6.77691 28.9684 5.12515 30.1868 3.90674C31.4052 2.68832 33.0569 2.00265 34.78 2.00001Z" fill="white"/>
<path d="M15.8899 38.81C16.1551 38.81 16.4094 38.7046 16.597 38.5171C16.7845 38.3295 16.8899 38.0752 16.8899 37.81V26.71C16.8899 23.85 20.3399 21.52 24.5899 21.52H45.1899C46.477 21.5103 47.7549 21.7375 48.9599 22.19C49.0602 22.3142 49.1888 22.4127 49.335 22.477C49.4811 22.5414 49.6405 22.5698 49.7999 22.56C51.6699 23.56 52.8899 25.01 52.8899 26.71V37.81C52.8899 38.0752 52.9953 38.3295 53.1828 38.5171C53.3703 38.7046 53.6247 38.81 53.8899 38.81C54.1551 38.81 54.4094 38.7046 54.597 38.5171C54.7845 38.3295 54.8899 38.0752 54.8899 37.81V26.71C54.8541 25.7368 54.5947 24.7849 54.1317 23.9282C53.6686 23.0715 53.0145 22.333 52.2199 21.77C52.9983 21.5997 53.7931 21.5159 54.5899 21.52H63.3099V37.81C63.3099 38.0752 63.4152 38.3295 63.6028 38.5171C63.7903 38.7046 64.0447 38.81 64.3099 38.81C64.5751 38.81 64.8295 38.7046 65.017 38.5171C65.2046 38.3295 65.3099 38.0752 65.3099 37.81V21.52H75.1899C79.4299 21.52 82.8899 23.83 82.8899 26.67V37.67C82.8899 37.9352 82.9953 38.1895 83.1828 38.3771C83.3703 38.5646 83.6247 38.67 83.8899 38.67C84.1551 38.67 84.4094 38.5646 84.597 38.3771C84.7845 38.1895 84.8899 37.9352 84.8899 37.67V26.67C84.8899 22.67 80.5399 19.52 75.1899 19.52H54.5899C52.9801 19.5162 51.3845 19.8218 49.8899 20.42C48.3959 19.8198 46.7999 19.5142 45.1899 19.52H24.5899C19.2399 19.52 14.8899 22.74 14.8899 26.71V37.81C14.8899 38.0752 14.9953 38.3295 15.1828 38.5171C15.3703 38.7046 15.6247 38.81 15.8899 38.81Z" fill="white"/>
<path d="M46.8899 37.7V30.41C46.8899 30.1448 46.7845 29.8905 46.597 29.7029C46.4094 29.5154 46.1551 29.41 45.8899 29.41C45.6247 29.41 45.3703 29.5154 45.1828 29.7029C44.9953 29.8905 44.8899 30.1448 44.8899 30.41V37.7C44.8899 37.9652 44.9953 38.2196 45.1828 38.4071C45.3703 38.5947 45.6247 38.7 45.8899 38.7C46.1551 38.7 46.4094 38.5947 46.597 38.4071C46.7845 38.2196 46.8899 37.9652 46.8899 37.7Z" fill="white"/>
<path d="M23.02 30.41V37.7C23.02 37.9652 23.1254 38.2196 23.3129 38.4071C23.5005 38.5947 23.7548 38.7 24.02 38.7C24.2852 38.7 24.5396 38.5947 24.7271 38.4071C24.9146 38.2196 25.02 37.9652 25.02 37.7V30.41C25.02 30.1448 24.9146 29.8905 24.7271 29.7029C24.5396 29.5154 24.2852 29.41 24.02 29.41C23.7548 29.41 23.5005 29.5154 23.3129 29.7029C23.1254 29.8905 23.02 30.1448 23.02 30.41Z" fill="white"/>
<path d="M74.8 38.7C75.0653 38.7 75.3196 38.5947 75.5071 38.4071C75.6947 38.2196 75.8 37.9652 75.8 37.7V30.41C75.8 30.1448 75.6947 29.8905 75.5071 29.7029C75.3196 29.5154 75.0653 29.41 74.8 29.41C74.5348 29.41 74.2804 29.5154 74.0929 29.7029C73.9054 29.8905 73.8 30.1448 73.8 30.41V37.7C73.8 37.9652 73.9054 38.2196 74.0929 38.4071C74.2804 38.5947 74.5348 38.7 74.8 38.7Z" fill="white"/>
<path d="M64.78 17C66.4612 17 68.1046 16.5015 69.5024 15.5675C70.9002 14.6335 71.9897 13.306 72.633 11.7528C73.2763 10.1996 73.4447 8.49058 73.1167 6.84174C72.7887 5.1929 71.9792 3.67835 70.7904 2.4896C69.6017 1.30085 68.0871 0.491302 66.4383 0.163328C64.7895 -0.164647 63.0804 0.00368643 61.5272 0.647031C59.974 1.29038 58.6465 2.37984 57.7125 3.77766C56.7785 5.17548 56.28 6.81886 56.28 8.50001C56.2827 10.7535 57.179 12.914 58.7725 14.5075C60.366 16.101 62.5265 16.9974 64.78 17ZM64.78 2.00001C66.0656 2.00001 67.3223 2.38123 68.3912 3.09546C69.4602 3.80969 70.2932 4.82484 70.7852 6.01256C71.2772 7.20028 71.406 8.50722 71.1552 9.7681C70.9043 11.029 70.2853 12.1872 69.3762 13.0962C68.4672 14.0052 67.309 14.6243 66.0481 14.8751C64.7872 15.1259 63.4803 14.9972 62.2926 14.5052C61.1049 14.0133 60.0897 13.1801 59.3755 12.1112C58.6613 11.0423 58.28 9.78558 58.28 8.50001C58.2827 6.77691 58.9684 5.12515 60.1868 3.90674C61.4052 2.68832 63.0569 2.00265 64.78 2.00001Z" fill="white"/>
</mask>
<g mask="url(#mask0)">
<rect width="100" height="100" fill="url(#paint0_linear)" style="mix-blend-mode:darken"/>
</g>
<defs>
<linearGradient id="paint0_linear" x1="4.46428" y1="100" x2="100" y2="14.9425" gradientUnits="userSpaceOnUse">
<stop stop-color="#25BED2"/>
<stop offset="0.385417" stop-color="#2686E9"/>
<stop offset="0.739583" stop-color="#8B5BC5"/>
<stop offset="1" stop-color="#FF92CC"/>
</linearGradient>
</defs>
</svg>
