<svg width="100" height="100" viewBox="0 0 100 100" fill="none" xmlns="http://www.w3.org/2000/svg">
<mask id="mask0" mask-type="alpha" maskUnits="userSpaceOnUse" x="0" y="0" width="100" height="100">
<path d="M7.25185 77.0993H8.77857C9.08225 77.0993 9.37346 76.9786 9.58819 76.7639C9.80293 76.5492 9.92361 76.2579 9.92361 75.9542C9.92361 75.6506 9.80293 75.3593 9.58819 75.1446C9.37346 74.9298 9.08225 74.8092 8.77857 74.8092H7.25185C6.94817 74.8092 6.65692 74.9298 6.44218 75.1446C6.22744 75.3593 6.10681 75.6506 6.10681 75.9542C6.10681 76.2579 6.22744 76.5492 6.44218 76.7639C6.65692 76.9786 6.94817 77.0993 7.25185 77.0993Z" fill="white"/>
<path d="M17.3284 74.8092H14.2749C13.9712 74.8092 13.68 74.9298 13.4653 75.1446C13.2505 75.3593 13.1299 75.6506 13.1299 75.9542C13.1299 76.2579 13.2505 76.5492 13.4653 76.7639C13.68 76.9786 13.9712 77.0993 14.2749 77.0993H17.3284C17.632 77.0993 17.9233 76.9786 18.138 76.7639C18.3528 76.5492 18.4734 76.2579 18.4734 75.9542C18.4734 75.6506 18.3528 75.3593 18.138 75.1446C17.9233 74.9298 17.632 74.8092 17.3284 74.8092Z" fill="white"/>
<path d="M74.107 77.0993H77.1604C77.4641 77.0993 77.7553 76.9786 77.9701 76.7639C78.1848 76.5492 78.3054 76.2579 78.3054 75.9542C78.3054 75.6506 78.1848 75.3593 77.9701 75.1446C77.7553 74.9298 77.4641 74.8092 77.1604 74.8092H74.107C73.8033 74.8092 73.512 74.9298 73.2973 75.1446C73.0825 75.3593 72.9619 75.6506 72.9619 75.9542C72.9619 76.2579 73.0825 76.5492 73.2973 76.7639C73.512 76.9786 73.8033 77.0993 74.107 77.0993Z" fill="white"/>
<path d="M82.6568 77.0993H85.7102C86.0139 77.0993 86.3051 76.9786 86.5199 76.7639C86.7346 76.5492 86.8552 76.2579 86.8552 75.9542C86.8552 75.6506 86.7346 75.3593 86.5199 75.1446C86.3051 74.9298 86.0139 74.8092 85.7102 74.8092H82.6568C82.3531 74.8092 82.0618 74.9298 81.8471 75.1446C81.6323 75.3593 81.5117 75.6506 81.5117 75.9542C81.5117 76.2579 81.6323 76.5492 81.8471 76.7639C82.0618 76.9786 82.3531 77.0993 82.6568 77.0993Z" fill="white"/>
<path d="M25.8931 74.8092H22.8396C22.5359 74.8092 22.2447 74.9298 22.0299 75.1446C21.8152 75.3593 21.6946 75.6506 21.6946 75.9542C21.6946 76.2579 21.8152 76.5492 22.0299 76.7639C22.2447 76.9786 22.5359 77.0993 22.8396 77.0993H25.8931C26.1967 77.0993 26.488 76.9786 26.7027 76.7639C26.9175 76.5492 27.0381 76.2579 27.0381 75.9542C27.0381 75.6506 26.9175 75.3593 26.7027 75.1446C26.488 74.9298 26.1967 74.8092 25.8931 74.8092Z" fill="white"/>
<path d="M91.2215 77.0993H92.7482C93.0519 77.0993 93.3431 76.9786 93.5578 76.7639C93.7725 76.5492 93.8932 76.2579 93.8932 75.9542C93.8932 75.6506 93.7725 75.3593 93.5578 75.1446C93.3431 74.9298 93.0519 74.8092 92.7482 74.8092H91.2215C90.9178 74.8092 90.6265 74.9298 90.4118 75.1446C90.197 75.3593 90.0764 75.6506 90.0764 75.9542C90.0764 76.2579 90.197 76.5492 90.4118 76.7639C90.6265 76.9786 90.9178 77.0993 91.2215 77.0993Z" fill="white"/>
<path d="M68.3206 74.8092H31.6793C31.3757 74.8092 31.0844 74.9298 30.8697 75.1446C30.6549 75.3593 30.5343 75.6506 30.5343 75.9542C30.5343 76.2579 30.6549 76.5492 30.8697 76.7639C31.0844 76.9786 31.3757 77.0993 31.6793 77.0993H68.3206C68.6242 77.0993 68.9154 76.9786 69.1302 76.7639C69.3449 76.5492 69.4656 76.2579 69.4656 75.9542C69.4656 75.6506 69.3449 75.3593 69.1302 75.1446C68.9154 74.9298 68.6242 74.8092 68.3206 74.8092Z" fill="white"/>
<path d="M7.25185 70.9923H8.77857C9.08225 70.9923 9.37346 70.8717 9.58819 70.657C9.80293 70.4422 9.92361 70.151 9.92361 69.8473C9.92361 69.5436 9.80293 69.2524 9.58819 69.0376C9.37346 68.8229 9.08225 68.7023 8.77857 68.7023H7.25185C6.94817 68.7023 6.65692 68.8229 6.44218 69.0376C6.22744 69.2524 6.10681 69.5436 6.10681 69.8473C6.10681 70.151 6.22744 70.4422 6.44218 70.657C6.65692 70.8717 6.94817 70.9923 7.25185 70.9923Z" fill="white"/>
<path d="M78.7937 68.7023H75.7403C75.4366 68.7023 75.1453 68.8229 74.9306 69.0376C74.7158 69.2524 74.5952 69.5436 74.5952 69.8473C74.5952 70.151 74.7158 70.4422 74.9306 70.657C75.1453 70.8717 75.4366 70.9923 75.7403 70.9923H78.7937C79.0974 70.9923 79.3886 70.8717 79.6034 70.657C79.8181 70.4422 79.9387 70.151 79.9387 69.8473C79.9387 69.5436 79.8181 69.2524 79.6034 69.0376C79.3886 68.8229 79.0974 68.7023 78.7937 68.7023Z" fill="white"/>
<path d="M43.4044 69.8473C43.4084 70.1498 43.5303 70.4387 43.7442 70.6526C43.9581 70.8665 44.247 70.9884 44.5495 70.9923H47.6029C47.9066 70.9923 48.1978 70.8717 48.4126 70.657C48.6273 70.4422 48.7479 70.151 48.7479 69.8473C48.7479 69.5436 48.6273 69.2524 48.4126 69.0376C48.1978 68.8229 47.9066 68.7023 47.6029 68.7023H44.5495C44.247 68.7062 43.9581 68.8281 43.7442 69.042C43.5303 69.2559 43.4084 69.5449 43.4044 69.8473Z" fill="white"/>
<path d="M51.1909 69.8473C51.1909 70.151 51.3115 70.4422 51.5263 70.657C51.741 70.8717 52.0323 70.9923 52.336 70.9923H55.3894C55.6931 70.9923 55.9843 70.8717 56.199 70.657C56.4138 70.4422 56.5344 70.151 56.5344 69.8473C56.5344 69.5436 56.4138 69.2524 56.199 69.0376C55.9843 68.8229 55.6931 68.7023 55.3894 68.7023H52.336C52.0323 68.7023 51.741 68.8229 51.5263 69.0376C51.3115 69.2524 51.1909 69.5436 51.1909 69.8473Z" fill="white"/>
<path d="M63.2212 70.9923C63.5249 70.9923 63.8161 70.8717 64.0308 70.657C64.2456 70.4422 64.3662 70.151 64.3662 69.8473C64.3662 69.5436 64.2456 69.2524 64.0308 69.0376C63.8161 68.8229 63.5249 68.7023 63.2212 68.7023H60.1677C59.8641 68.7023 59.5729 68.8229 59.3581 69.0376C59.1434 69.2524 59.0227 69.5436 59.0227 69.8473C59.0227 70.151 59.1434 70.4422 59.3581 70.657C59.5729 70.8717 59.8641 70.9923 60.1677 70.9923H63.2212Z" fill="white"/>
<path d="M36.7787 70.9923H39.8321C40.1358 70.9923 40.427 70.8717 40.6418 70.657C40.8565 70.4422 40.9772 70.151 40.9772 69.8473C40.9772 69.5436 40.8565 69.2524 40.6418 69.0376C40.427 68.8229 40.1358 68.7023 39.8321 68.7023H36.7787C36.475 68.7023 36.1838 68.8229 35.969 69.0376C35.7543 69.2524 35.6337 69.5436 35.6337 69.8473C35.6337 70.151 35.7543 70.4422 35.969 70.657C36.1838 70.8717 36.475 70.9923 36.7787 70.9923Z" fill="white"/>
<path d="M28.9923 70.9923H32.0458C32.3494 70.9923 32.6407 70.8717 32.8554 70.657C33.0702 70.4422 33.1908 70.151 33.1908 69.8473C33.1908 69.5436 33.0702 69.2524 32.8554 69.0376C32.6407 68.8229 32.3494 68.7023 32.0458 68.7023H28.9923C28.6886 68.7023 28.3974 68.8229 28.1827 69.0376C27.9679 69.2524 27.8473 69.5436 27.8473 69.8473C27.8473 70.151 27.9679 70.4422 28.1827 70.657C28.3974 70.8717 28.6886 70.9923 28.9923 70.9923Z" fill="white"/>
<path d="M21.2212 70.9923H24.2746C24.5783 70.9923 24.8696 70.8717 25.0843 70.657C25.2991 70.4422 25.4197 70.151 25.4197 69.8473C25.4197 69.5436 25.2991 69.2524 25.0843 69.0376C24.8696 68.8229 24.5783 68.7023 24.2746 68.7023H21.2212C20.9175 68.7023 20.6263 68.8229 20.4115 69.0376C20.1968 69.2524 20.0762 69.5436 20.0762 69.8473C20.0762 70.151 20.1968 70.4422 20.4115 70.657C20.6263 70.8717 20.9175 70.9923 21.2212 70.9923Z" fill="white"/>
<path d="M86.5495 68.7023H83.4961C83.1924 68.7023 82.9012 68.8229 82.6865 69.0376C82.4718 69.2524 82.3511 69.5436 82.3511 69.8473C82.3511 70.151 82.4718 70.4422 82.6865 70.657C82.9012 70.8717 83.1924 70.9923 83.4961 70.9923H86.5495C86.8532 70.9923 87.1445 70.8717 87.3592 70.657C87.574 70.4422 87.6946 70.151 87.6946 69.8473C87.6946 69.5436 87.574 69.2524 87.3592 69.0376C87.1445 68.8229 86.8532 68.7023 86.5495 68.7023Z" fill="white"/>
<path d="M70.9924 68.7023H67.939C67.6353 68.7023 67.344 68.8229 67.1293 69.0376C66.9146 69.2524 66.7939 69.5436 66.7939 69.8473C66.7939 70.151 66.9146 70.4422 67.1293 70.657C67.344 70.8717 67.6353 70.9923 67.939 70.9923H70.9924C71.2961 70.9923 71.5873 70.8717 71.802 70.657C72.0168 70.4422 72.1375 70.151 72.1375 69.8473C72.1375 69.5436 72.0168 69.2524 71.802 69.0376C71.5873 68.8229 71.2961 68.7023 70.9924 68.7023Z" fill="white"/>
<path d="M13.4352 70.9923H16.4886C16.7923 70.9923 17.0836 70.8717 17.2983 70.657C17.513 70.4422 17.6337 70.151 17.6337 69.8473C17.6337 69.5436 17.513 69.2524 17.2983 69.0376C17.0836 68.8229 16.7923 68.7023 16.4886 68.7023H13.4352C13.1315 68.7023 12.8403 68.8229 12.6255 69.0376C12.4108 69.2524 12.2902 69.5436 12.2902 69.8473C12.2902 70.151 12.4108 70.4422 12.6255 70.657C12.8403 70.8717 13.1315 70.9923 13.4352 70.9923Z" fill="white"/>
<path d="M91.2215 70.9923H92.7482C93.0519 70.9923 93.3431 70.8717 93.5578 70.657C93.7725 70.4422 93.8932 70.151 93.8932 69.8473C93.8932 69.5436 93.7725 69.2524 93.5578 69.0376C93.3431 68.8229 93.0519 68.7023 92.7482 68.7023H91.2215C90.9178 68.7023 90.6265 68.8229 90.4118 69.0376C90.197 69.2524 90.0764 69.5436 90.0764 69.8473C90.0764 70.151 90.197 70.4422 90.4118 70.657C90.6265 70.8717 90.9178 70.9923 91.2215 70.9923Z" fill="white"/>
<path d="M7.25185 64.8855H8.77857C9.08225 64.8855 9.37346 64.7649 9.58819 64.5502C9.80293 64.3354 9.92361 64.0442 9.92361 63.7405C9.92361 63.4368 9.80293 63.1456 9.58819 62.9308C9.37346 62.7161 9.08225 62.5955 8.77857 62.5955H7.25185C6.94817 62.5955 6.65692 62.7161 6.44218 62.9308C6.22744 63.1456 6.10681 63.4368 6.10681 63.7405C6.10681 64.0442 6.22744 64.3354 6.44218 64.5502C6.65692 64.7649 6.94817 64.8855 7.25185 64.8855Z" fill="white"/>
<path d="M82.6568 64.8855H85.7102C86.0139 64.8855 86.3051 64.7649 86.5199 64.5502C86.7346 64.3354 86.8552 64.0442 86.8552 63.7405C86.8552 63.4368 86.7346 63.1456 86.5199 62.9308C86.3051 62.7161 86.0139 62.5955 85.7102 62.5955H82.6568C82.3531 62.5955 82.0618 62.7161 81.8471 62.9308C81.6323 63.1456 81.5117 63.4368 81.5117 63.7405C81.5117 64.0442 81.6323 64.3354 81.8471 64.5502C82.0618 64.7649 82.3531 64.8855 82.6568 64.8855Z" fill="white"/>
<path d="M74.107 64.8855H77.1604C77.4641 64.8855 77.7553 64.7649 77.9701 64.5502C78.1848 64.3354 78.3054 64.0442 78.3054 63.7405C78.3054 63.4368 78.1848 63.1456 77.9701 62.9308C77.7553 62.7161 77.4641 62.5955 77.1604 62.5955H74.107C73.8033 62.5955 73.512 62.7161 73.2973 62.9308C73.0825 63.1456 72.9619 63.4368 72.9619 63.7405C72.9619 64.0442 73.0825 64.3354 73.2973 64.5502C73.512 64.7649 73.8033 64.8855 74.107 64.8855Z" fill="white"/>
<path d="M21.6334 63.7405C21.6334 64.0442 21.7541 64.3354 21.9688 64.5502C22.1835 64.7649 22.4748 64.8855 22.7785 64.8855H25.8319C26.1356 64.8855 26.4268 64.7649 26.6416 64.5502C26.8563 64.3354 26.9769 64.0442 26.9769 63.7405C26.9769 63.4368 26.8563 63.1456 26.6416 62.9308C26.4268 62.7161 26.1356 62.5955 25.8319 62.5955H22.7785C22.4748 62.5955 22.1835 62.7161 21.9688 62.9308C21.7541 63.1456 21.6334 63.4368 21.6334 63.7405Z" fill="white"/>
<path d="M30.1832 63.7405C30.1872 64.043 30.3091 64.3319 30.523 64.5458C30.7369 64.7597 31.0258 64.8816 31.3283 64.8855H34.3817C34.6854 64.8855 34.9766 64.7649 35.1914 64.5502C35.4061 64.3354 35.5267 64.0442 35.5267 63.7405C35.5267 63.4368 35.4061 63.1456 35.1914 62.9308C34.9766 62.7161 34.6854 62.5955 34.3817 62.5955H31.3283C31.0258 62.5994 30.7369 62.7213 30.523 62.9352C30.3091 63.1491 30.1872 63.438 30.1832 63.7405Z" fill="white"/>
<path d="M38.7479 63.7405C38.7479 64.0442 38.8686 64.3354 39.0833 64.5502C39.2981 64.7649 39.5893 64.8855 39.893 64.8855H42.9464C43.2501 64.8855 43.5413 64.7649 43.7561 64.5502C43.9708 64.3354 44.0914 64.0442 44.0914 63.7405C44.0914 63.4368 43.9708 63.1456 43.7561 62.9308C43.5413 62.7161 43.2501 62.5955 42.9464 62.5955H39.893C39.5893 62.5955 39.2981 62.7161 39.0833 62.9308C38.8686 63.1456 38.7479 63.4368 38.7479 63.7405Z" fill="white"/>
<path d="M14.2139 62.5955C13.9102 62.5955 13.619 62.7161 13.4042 62.9308C13.1895 63.1456 13.0688 63.4368 13.0688 63.7405C13.0688 64.0442 13.1895 64.3354 13.4042 64.5502C13.619 64.7649 13.9102 64.8855 14.2139 64.8855H17.2673C17.571 64.8855 17.8622 64.7649 18.0769 64.5502C18.2917 64.3354 18.4124 64.0442 18.4124 63.7405C18.4124 63.4368 18.2917 63.1456 18.0769 62.9308C17.8622 62.7161 17.571 62.5955 17.2673 62.5955H14.2139Z" fill="white"/>
<path d="M51.5572 62.5955H48.5038C48.2001 62.5955 47.9089 62.7161 47.6941 62.9308C47.4794 63.1456 47.3588 63.4368 47.3588 63.7405C47.3588 64.0442 47.4794 64.3354 47.6941 64.5502C47.9089 64.7649 48.2001 64.8855 48.5038 64.8855H51.5572C51.8609 64.8855 52.1522 64.7649 52.3669 64.5502C52.5816 64.3354 52.7023 64.0442 52.7023 63.7405C52.7023 63.4368 52.5816 63.1456 52.3669 62.9308C52.1522 62.7161 51.8609 62.5955 51.5572 62.5955Z" fill="white"/>
<path d="M55.8929 63.7405C55.8969 64.043 56.0188 64.3319 56.2327 64.5458C56.4466 64.7597 56.7355 64.8816 57.038 64.8855H60.0914C60.3951 64.8855 60.6864 64.7649 60.9011 64.5502C61.1158 64.3354 61.2365 64.0442 61.2365 63.7405C61.2365 63.4368 61.1158 63.1456 60.9011 62.9308C60.6864 62.7161 60.3951 62.5955 60.0914 62.5955H57.038C56.7355 62.5994 56.4466 62.7213 56.2327 62.9352C56.0188 63.1491 55.8969 63.438 55.8929 63.7405Z" fill="white"/>
<path d="M65.5571 64.8855H68.6106C68.9143 64.8855 69.2055 64.7649 69.4203 64.5502C69.635 64.3354 69.7556 64.0442 69.7556 63.7405C69.7556 63.4368 69.635 63.1456 69.4203 62.9308C69.2055 62.7161 68.9143 62.5955 68.6106 62.5955H65.5571C65.2535 62.5955 64.9623 62.7161 64.7475 62.9308C64.5328 63.1456 64.4121 63.4368 64.4121 63.7405C64.4121 64.0442 64.5328 64.3354 64.7475 64.5502C64.9623 64.7649 65.2535 64.8855 65.5571 64.8855Z" fill="white"/>
<path d="M91.2215 64.8855H92.7482C93.0519 64.8855 93.3431 64.7649 93.5578 64.5502C93.7725 64.3354 93.8932 64.0442 93.8932 63.7405C93.8932 63.4368 93.7725 63.1456 93.5578 62.9308C93.3431 62.7161 93.0519 62.5955 92.7482 62.5955H91.2215C90.9178 62.5955 90.6265 62.7161 90.4118 62.9308C90.197 63.1456 90.0764 63.4368 90.0764 63.7405C90.0764 64.0442 90.197 64.3354 90.4118 64.5502C90.6265 64.7649 90.9178 64.8855 91.2215 64.8855Z" fill="white"/>
<path d="M7.25185 58.7786H8.77857C9.08225 58.7786 9.37346 58.658 9.58819 58.4432C9.80293 58.2285 9.92361 57.9372 9.92361 57.6336C9.92361 57.3299 9.80293 57.0386 9.58819 56.8239C9.37346 56.6092 9.08225 56.4885 8.77857 56.4885H7.25185C6.94817 56.4885 6.65692 56.6092 6.44218 56.8239C6.22744 57.0386 6.10681 57.3299 6.10681 57.6336C6.10681 57.9372 6.22744 58.2285 6.44218 58.4432C6.65692 58.658 6.94817 58.7786 7.25185 58.7786Z" fill="white"/>
<path d="M75.7403 58.7786H78.7937C79.0974 58.7786 79.3886 58.658 79.6034 58.4432C79.8181 58.2285 79.9387 57.9372 79.9387 57.6336C79.9387 57.3299 79.8181 57.0386 79.6034 56.8239C79.3886 56.6092 79.0974 56.4885 78.7937 56.4885H75.7403C75.4366 56.4885 75.1453 56.6092 74.9306 56.8239C74.7158 57.0386 74.5952 57.3299 74.5952 57.6336C74.5952 57.9372 74.7158 58.2285 74.9306 58.4432C75.1453 58.658 75.4366 58.7786 75.7403 58.7786Z" fill="white"/>
<path d="M44.5495 58.7786H47.6029C47.9066 58.7786 48.1978 58.658 48.4126 58.4432C48.6273 58.2285 48.7479 57.9372 48.7479 57.6336C48.7479 57.3299 48.6273 57.0386 48.4126 56.8239C48.1978 56.6092 47.9066 56.4885 47.6029 56.4885H44.5495C44.2458 56.4885 43.9545 56.6092 43.7398 56.8239C43.525 57.0386 43.4044 57.3299 43.4044 57.6336C43.4044 57.9372 43.525 58.2285 43.7398 58.4432C43.9545 58.658 44.2458 58.7786 44.5495 58.7786Z" fill="white"/>
<path d="M28.9923 58.7786H32.0458C32.3494 58.7786 32.6407 58.658 32.8554 58.4432C33.0702 58.2285 33.1908 57.9372 33.1908 57.6336C33.1908 57.3299 33.0702 57.0386 32.8554 56.8239C32.6407 56.6092 32.3494 56.4885 32.0458 56.4885H28.9923C28.6886 56.4885 28.3974 56.6092 28.1827 56.8239C27.9679 57.0386 27.8473 57.3299 27.8473 57.6336C27.8473 57.9372 27.9679 58.2285 28.1827 58.4432C28.3974 58.658 28.6886 58.7786 28.9923 58.7786Z" fill="white"/>
<path d="M36.7787 58.7786H39.8321C40.1358 58.7786 40.427 58.658 40.6418 58.4432C40.8565 58.2285 40.9772 57.9372 40.9772 57.6336C40.9772 57.3299 40.8565 57.0386 40.6418 56.8239C40.427 56.6092 40.1358 56.4885 39.8321 56.4885H36.7787C36.475 56.4885 36.1838 56.6092 35.969 56.8239C35.7543 57.0386 35.6337 57.3299 35.6337 57.6336C35.6337 57.9372 35.7543 58.2285 35.969 58.4432C36.1838 58.658 36.475 58.7786 36.7787 58.7786Z" fill="white"/>
<path d="M21.2212 58.7786H24.2746C24.5783 58.7786 24.8696 58.658 25.0843 58.4432C25.2991 58.2285 25.4197 57.9372 25.4197 57.6336C25.4197 57.3299 25.2991 57.0386 25.0843 56.8239C24.8696 56.6092 24.5783 56.4885 24.2746 56.4885H21.2212C20.9175 56.4885 20.6263 56.6092 20.4115 56.8239C20.1968 57.0386 20.0762 57.3299 20.0762 57.6336C20.0762 57.9372 20.1968 58.2285 20.4115 58.4432C20.6263 58.658 20.9175 58.7786 21.2212 58.7786Z" fill="white"/>
<path d="M13.4352 58.7786H16.4886C16.7923 58.7786 17.0836 58.658 17.2983 58.4432C17.513 58.2285 17.6337 57.9372 17.6337 57.6336C17.6337 57.3299 17.513 57.0386 17.2983 56.8239C17.0836 56.6092 16.7923 56.4885 16.4886 56.4885H13.4352C13.1315 56.4885 12.8403 56.6092 12.6255 56.8239C12.4108 57.0386 12.2902 57.3299 12.2902 57.6336C12.2902 57.9372 12.4108 58.2285 12.6255 58.4432C12.8403 58.658 13.1315 58.7786 13.4352 58.7786Z" fill="white"/>
<path d="M67.8778 58.7786H70.9313C71.2349 58.7786 71.5262 58.658 71.7409 58.4432C71.9557 58.2285 72.0763 57.9372 72.0763 57.6336C72.0763 57.3299 71.9557 57.0386 71.7409 56.8239C71.5262 56.6092 71.2349 56.4885 70.9313 56.4885H67.8778C67.5741 56.4885 67.2829 56.6092 67.0682 56.8239C66.8534 57.0386 66.7328 57.3299 66.7328 57.6336C66.7328 57.9372 66.8534 58.2285 67.0682 58.4432C67.2829 58.658 67.5741 58.7786 67.8778 58.7786Z" fill="white"/>
<path d="M52.336 58.7786H55.3894C55.6931 58.7786 55.9843 58.658 56.199 58.4432C56.4138 58.2285 56.5344 57.9372 56.5344 57.6336C56.5344 57.3299 56.4138 57.0386 56.199 56.8239C55.9843 56.6092 55.6931 56.4885 55.3894 56.4885H52.336C52.0323 56.4885 51.741 56.6092 51.5263 56.8239C51.3115 57.0386 51.1909 57.3299 51.1909 57.6336C51.1909 57.9372 51.3115 58.2285 51.5263 58.4432C51.741 58.658 52.0323 58.7786 52.336 58.7786Z" fill="white"/>
<path d="M83.3738 58.7786H86.4272C86.7309 58.7786 87.0222 58.658 87.2369 58.4432C87.4516 58.2285 87.5723 57.9372 87.5723 57.6336C87.5723 57.3299 87.4516 57.0386 87.2369 56.8239C87.0222 56.6092 86.7309 56.4885 86.4272 56.4885H83.3738C83.0701 56.4885 82.7789 56.6092 82.5641 56.8239C82.3494 57.0386 82.2288 57.3299 82.2288 57.6336C82.2288 57.9372 82.3494 58.2285 82.5641 58.4432C82.7789 58.658 83.0701 58.7786 83.3738 58.7786Z" fill="white"/>
<path d="M60.1071 58.7786H63.1605C63.4642 58.7786 63.7554 58.658 63.9702 58.4432C64.1849 58.2285 64.3055 57.9372 64.3055 57.6336C64.3055 57.3299 64.1849 57.0386 63.9702 56.8239C63.7554 56.6092 63.4642 56.4885 63.1605 56.4885H60.1071C59.8034 56.4885 59.5121 56.6092 59.2974 56.8239C59.0827 57.0386 58.962 57.3299 58.962 57.6336C58.962 57.9372 59.0827 58.2285 59.2974 58.4432C59.5121 58.658 59.8034 58.7786 60.1071 58.7786Z" fill="white"/>
<path d="M91.2215 58.7786H92.7482C93.0519 58.7786 93.3431 58.658 93.5578 58.4432C93.7725 58.2285 93.8932 57.9372 93.8932 57.6336C93.8932 57.3299 93.7725 57.0386 93.5578 56.8239C93.3431 56.6092 93.0519 56.4885 92.7482 56.4885H91.2215C90.9178 56.4885 90.6265 56.6092 90.4118 56.8239C90.197 57.0386 90.0764 57.3299 90.0764 57.6336C90.0764 57.9372 90.197 58.2285 90.4118 58.4432C90.6265 58.658 90.9178 58.7786 91.2215 58.7786Z" fill="white"/>
<path d="M100 4.19847C100 3.08497 99.5576 2.01707 98.7703 1.22971C97.9829 0.442341 96.915 0 95.8015 0H4.19847C3.08497 0 2.01706 0.442341 1.2297 1.22971C0.442329 2.01707 0 3.08497 0 4.19847V50V95.8015C0 96.915 0.442329 97.9829 1.2297 98.7703C2.01706 99.5576 3.08497 100 4.19847 100H95.8015C96.915 100 97.9829 99.5576 98.7703 98.7703C99.5576 97.9829 100 96.915 100 95.8015V50V4.19847ZM2.29008 4.19847C2.29008 3.69233 2.4911 3.20692 2.84899 2.84903C3.20688 2.49113 3.69233 2.29008 4.19847 2.29008H95.8015C96.3077 2.29008 96.7931 2.49113 97.151 2.84903C97.5089 3.20692 97.7099 3.69233 97.7099 4.19847V48.855H2.29008V4.19847ZM34.3511 97.7099V85.1145C34.3511 84.6084 34.5522 84.123 34.9101 83.7651C35.268 83.4072 35.7534 83.2061 36.2595 83.2061H63.7405C64.2466 83.2061 64.732 83.4072 65.0899 83.7651C65.4478 84.123 65.6489 84.6084 65.6489 85.1145V97.7099H34.3511ZM97.7099 95.8015C97.7099 96.3077 97.5089 96.7931 97.151 97.151C96.7931 97.5089 96.3077 97.7099 95.8015 97.7099H67.9389V85.1145C67.9349 84.0022 67.4913 82.9367 66.7048 82.1502C65.9183 81.3637 64.8527 80.9201 63.7405 80.916H36.2595C35.146 80.916 34.0781 81.3584 33.2908 82.1457C32.5034 82.9331 32.0611 84.001 32.0611 85.1145V97.7099H4.19847C3.69233 97.7099 3.20688 97.5089 2.84899 97.151C2.4911 96.7931 2.29008 96.3077 2.29008 95.8015V51.145H97.7099V95.8015Z" fill="white"/>
<path d="M89.6946 7.63354H10.3053C9.59671 7.63354 8.9171 7.91502 8.41605 8.41608C7.915 8.91713 7.63354 9.59671 7.63354 10.3053V40.8397C7.63354 41.5482 7.915 42.2278 8.41605 42.7289C8.9171 43.2299 9.59671 43.5114 10.3053 43.5114H89.6946C90.402 43.5074 91.0792 43.2246 91.5794 42.7244C92.0796 42.2243 92.3624 41.547 92.3664 40.8397V10.3053C92.3624 9.59794 92.0796 8.9207 91.5794 8.42051C91.0792 7.92033 90.402 7.63755 89.6946 7.63354ZM90.0763 40.8397C90.0763 40.9409 90.036 41.038 89.9645 41.1095C89.8929 41.1811 89.7958 41.2213 89.6946 41.2213H10.3053C10.2041 41.2213 10.107 41.1811 10.0354 41.1095C9.96382 41.038 9.92362 40.9409 9.92362 40.8397V10.3053C9.92362 10.2041 9.96382 10.107 10.0354 10.0354C10.107 9.96383 10.2041 9.92362 10.3053 9.92362H89.6946C89.7958 9.92362 89.8929 9.96383 89.9645 10.0354C90.036 10.107 90.0763 10.2041 90.0763 10.3053V40.8397Z" fill="white"/>
<path d="M40.4277 15.4656C40.1816 15.3147 39.8876 15.2623 39.6045 15.3189C39.3214 15.3755 39.0701 15.537 38.901 15.771L32.7941 24.9313C32.668 25.1214 32.6008 25.3444 32.6008 25.5725C32.6008 25.8006 32.668 26.0236 32.7941 26.2137L38.901 35.374C39.0056 35.5289 39.1466 35.6557 39.3116 35.7436C39.4766 35.8314 39.6606 35.8775 39.8475 35.8778C40.074 35.8766 40.2958 35.8133 40.4888 35.6946C40.7199 35.5233 40.8791 35.2722 40.9355 34.9901C40.992 34.708 40.9415 34.4149 40.7941 34.1679L35.1147 25.6488L40.7941 17.1297C40.8878 16.9991 40.953 16.8503 40.9853 16.6928C41.0177 16.5354 41.0166 16.3729 40.982 16.2159C40.9475 16.059 40.8803 15.911 40.7848 15.7818C40.6892 15.6525 40.5676 15.5448 40.4277 15.4656Z" fill="white"/>
<path d="M61.1602 15.771C60.9911 15.537 60.7398 15.3755 60.4567 15.3189C60.1736 15.2623 59.8796 15.3147 59.6335 15.4656C59.394 15.6301 59.227 15.8804 59.1673 16.1648C59.1076 16.4491 59.1597 16.7454 59.3128 16.9923L64.9922 25.5114L59.3128 34.0305C59.167 34.2793 59.119 34.5735 59.1783 34.8558C59.2375 35.138 59.3998 35.3881 59.6335 35.5572C59.821 35.6754 60.0377 35.7388 60.2594 35.7404C60.4484 35.74 60.6345 35.6939 60.802 35.6062C60.9694 35.5185 61.1132 35.3917 61.2212 35.2366L67.3281 26.0763C67.4541 25.8862 67.5214 25.6632 67.5214 25.4351C67.5214 25.207 67.4541 24.984 67.3281 24.7939L61.1602 15.771Z" fill="white"/>
<path d="M55.8931 15.4198C55.6344 15.2789 55.3314 15.2432 55.0471 15.32C54.7628 15.3967 54.519 15.5801 54.3664 15.832L43.6793 34.1526C43.5255 34.4158 43.4825 34.7293 43.5598 35.0242C43.6371 35.3191 43.8284 35.5712 44.0915 35.7251C44.3547 35.879 44.6683 35.922 44.9632 35.8447C45.2581 35.7674 45.5102 35.5761 45.6641 35.3129L56.3511 16.9923C56.4943 16.7221 56.5265 16.4067 56.441 16.1131C56.3555 15.8195 56.159 15.5708 55.8931 15.4198Z" fill="white"/>
<path d="M30.1527 15.2672H28.2443V13.3588C28.2443 13.0551 28.1236 12.7638 27.9089 12.5491C27.6941 12.3344 27.4029 12.2137 27.0992 12.2137C26.7955 12.2137 26.5043 12.3344 26.2896 12.5491C26.0748 12.7638 25.9542 13.0551 25.9542 13.3588V15.2672H24.0458C23.7421 15.2672 23.4509 15.3878 23.2361 15.6025C23.0214 15.8173 22.9008 16.1085 22.9008 16.4122C22.9008 16.7159 23.0214 17.0071 23.2361 17.2219C23.4509 17.4366 23.7421 17.5573 24.0458 17.5573H25.9542V19.4657C25.9542 19.7693 26.0748 20.0606 26.2896 20.2753C26.5043 20.49 26.7955 20.6107 27.0992 20.6107C27.4029 20.6107 27.6941 20.49 27.9089 20.2753C28.1236 20.0606 28.2443 19.7693 28.2443 19.4657V17.5573H30.1527C30.4563 17.5573 30.7476 17.4366 30.9623 17.2219C31.177 17.0071 31.2977 16.7159 31.2977 16.4122C31.2977 16.1085 31.177 15.8173 30.9623 15.6025C30.7476 15.3878 30.4563 15.2672 30.1527 15.2672Z" fill="white"/>
<path d="M22.5191 30.5344H20.6107V28.626C20.6107 28.3223 20.49 28.0311 20.2753 27.8163C20.0606 27.6016 19.7694 27.481 19.4657 27.481C19.162 27.481 18.8708 27.6016 18.656 27.8163C18.4413 28.0311 18.3206 28.3223 18.3206 28.626V30.5344H16.4123C16.1086 30.5344 15.8173 30.655 15.6026 30.8698C15.3878 31.0845 15.2672 31.3757 15.2672 31.6794C15.2672 31.9831 15.3878 32.2744 15.6026 32.4891C15.8173 32.7038 16.1086 32.8245 16.4123 32.8245H18.3206V34.7329C18.3206 35.0365 18.4413 35.3278 18.656 35.5425C18.8708 35.7573 19.162 35.8779 19.4657 35.8779C19.7694 35.8779 20.0606 35.7573 20.2753 35.5425C20.49 35.3278 20.6107 35.0365 20.6107 34.7329V32.8245H22.5191C22.8228 32.8245 23.114 32.7038 23.3287 32.4891C23.5435 32.2744 23.6642 31.9831 23.6642 31.6794C23.6642 31.3757 23.5435 31.0845 23.3287 30.8698C23.114 30.655 22.8228 30.5344 22.5191 30.5344Z" fill="white"/>
<path d="M82.061 25.9542H80.1526V24.0458C80.1526 23.7421 80.0319 23.4509 79.8172 23.2361C79.6024 23.0214 79.3112 22.9008 79.0076 22.9008C78.7039 22.9008 78.4126 23.0214 78.1979 23.2361C77.9831 23.4509 77.8625 23.7421 77.8625 24.0458V25.9542H75.9541C75.6504 25.9542 75.3592 26.0748 75.1444 26.2896C74.9297 26.5043 74.8091 26.7955 74.8091 27.0992C74.8091 27.4029 74.9297 27.6942 75.1444 27.9089C75.3592 28.1236 75.6504 28.2443 75.9541 28.2443H77.8625V30.1527C77.8625 30.4563 77.9831 30.7476 78.1979 30.9623C78.4126 31.1771 78.7039 31.2977 79.0076 31.2977C79.3112 31.2977 79.6024 31.1771 79.8172 30.9623C80.0319 30.7476 80.1526 30.4563 80.1526 30.1527V28.2443H82.061C82.3647 28.2443 82.6559 28.1236 82.8706 27.9089C83.0854 27.6942 83.206 27.4029 83.206 27.0992C83.206 26.7955 83.0854 26.5043 82.8706 26.2896C82.6559 26.0748 82.3647 25.9542 82.061 25.9542Z" fill="white"/>
</mask>
<g mask="url(#mask0)">
<rect width="100" height="100" fill="url(#paint0_linear)" style="mix-blend-mode:darken"/>
</g>
<defs>
<linearGradient id="paint0_linear" x1="4.46428" y1="100" x2="100" y2="14.9425" gradientUnits="userSpaceOnUse">
<stop stop-color="#25BED2"/>
<stop offset="0.385417" stop-color="#2686E9"/>
<stop offset="0.739583" stop-color="#8B5BC5"/>
<stop offset="1" stop-color="#FF92CC"/>
</linearGradient>
</defs>
</svg>
