<svg width="101" height="100" viewBox="0 0 101 100" fill="none" xmlns="http://www.w3.org/2000/svg">
<mask id="mask0" mask-type="alpha" maskUnits="userSpaceOnUse" x="0" y="0" width="101" height="100">
<path d="M37.8167 32.0609C37.513 32.0609 37.2217 32.1815 37.007 32.3963C36.7923 32.611 36.6716 32.9023 36.6716 33.2059V42.3662C36.6716 42.6699 36.7923 42.9612 37.007 43.1759C37.2217 43.3906 37.513 43.5113 37.8167 43.5113C38.1203 43.5113 38.4116 43.3906 38.6263 43.1759C38.8411 42.9612 38.9617 42.6699 38.9617 42.3662V33.2059C38.9577 32.9035 38.8358 32.6145 38.622 32.4007C38.4081 32.1868 38.1191 32.0649 37.8167 32.0609Z" fill="white"/>
<path d="M36.1372 81.6791H52.5952C52.8989 81.6791 53.1901 81.5585 53.4048 81.3437C53.6195 81.129 53.7403 80.8378 53.7403 80.5341C53.7403 80.2304 53.6195 79.9391 53.4048 79.7244C53.1901 79.5097 52.8989 79.389 52.5952 79.389H36.1372C35.8335 79.389 35.5423 79.5097 35.3276 79.7244C35.1128 79.9391 34.9922 80.2304 34.9922 80.5341C34.9922 80.8378 35.1128 81.129 35.3276 81.3437C35.5423 81.5585 35.8335 81.6791 36.1372 81.6791Z" fill="white"/>
<path d="M26.6563 81.6791H30.0303C30.334 81.6791 30.6253 81.5585 30.84 81.3437C31.0547 81.129 31.1754 80.8378 31.1754 80.5341C31.1754 80.2304 31.0547 79.9391 30.84 79.7244C30.6253 79.5097 30.334 79.389 30.0303 79.389H26.6563C26.3526 79.389 26.0613 79.5097 25.8466 79.7244C25.6319 79.9391 25.5112 80.2304 25.5112 80.5341C25.5112 80.8378 25.6319 81.129 25.8466 81.3437C26.0613 81.5585 26.3526 81.6791 26.6563 81.6791Z" fill="white"/>
<path d="M59.1755 94.6562H57.2671V92.7478C57.2671 92.4441 57.1464 92.1529 56.9316 91.9381C56.7169 91.7234 56.4257 91.6028 56.122 91.6028C55.8184 91.6028 55.5271 91.7234 55.3124 91.9381C55.0976 92.1529 54.977 92.4441 54.977 92.7478V94.6562H53.0686C52.7649 94.6562 52.4737 94.7768 52.259 94.9916C52.0442 95.2063 51.9236 95.4976 51.9236 95.8012C51.9236 96.1049 52.0442 96.3962 52.259 96.6109C52.4737 96.8256 52.7649 96.9463 53.0686 96.9463H54.977V98.8547C54.977 99.1584 55.0976 99.4496 55.3124 99.6643C55.5271 99.8791 55.8184 99.9997 56.122 99.9997C56.4257 99.9997 56.7169 99.8791 56.9316 99.6643C57.1464 99.4496 57.2671 99.1584 57.2671 98.8547V96.9463H59.1755C59.4792 96.9463 59.7703 96.8256 59.985 96.6109C60.1998 96.3962 60.3205 96.1049 60.3205 95.8012C60.3205 95.4976 60.1998 95.2063 59.985 94.9916C59.7703 94.7768 59.4792 94.6562 59.1755 94.6562Z" fill="white"/>
<path d="M74.4426 87.0227H72.5342V85.1143C72.5342 84.8106 72.4134 84.5193 72.1987 84.3046C71.984 84.0899 71.6928 83.9692 71.3891 83.9692C71.0855 83.9692 70.7942 84.0899 70.5795 84.3046C70.3647 84.5193 70.2441 84.8106 70.2441 85.1143V87.0227H68.3357C68.032 87.0227 67.7408 87.1433 67.526 87.358C67.3113 87.5728 67.1907 87.864 67.1907 88.1677C67.1907 88.4714 67.3113 88.7626 67.526 88.9774C67.7408 89.1921 68.032 89.3127 68.3357 89.3127H70.2441V91.2211C70.2441 91.5248 70.3647 91.8161 70.5795 92.0308C70.7942 92.2455 71.0855 92.3662 71.3891 92.3662C71.6928 92.3662 71.984 92.2455 72.1987 92.0308C72.4134 91.8161 72.5342 91.5248 72.5342 91.2211V89.3127H74.4426C74.7462 89.3127 75.0374 89.1921 75.2521 88.9774C75.4669 88.7626 75.5876 88.4714 75.5876 88.1677C75.5876 87.864 75.4669 87.5728 75.2521 87.358C75.0374 87.1433 74.7462 87.0227 74.4426 87.0227Z" fill="white"/>
<path d="M97.3891 74.8089H95.4807V72.9005C95.4807 72.5968 95.3601 72.3056 95.1453 72.0909C94.9306 71.8761 94.6393 71.7555 94.3357 71.7555C94.032 71.7555 93.7407 71.8761 93.526 72.0909C93.3113 72.3056 93.1906 72.5968 93.1906 72.9005V74.8089H91.2822C90.9786 74.8089 90.6873 74.9295 90.4726 75.1443C90.2578 75.359 90.1372 75.6503 90.1372 75.954C90.1372 76.2576 90.2578 76.5489 90.4726 76.7636C90.6873 76.9784 90.9786 77.099 91.2822 77.099H93.1906V79.0074C93.1906 79.3111 93.3113 79.6023 93.526 79.817C93.7407 80.0318 94.032 80.1524 94.3357 80.1524C94.6393 80.1524 94.9306 80.0318 95.1453 79.817C95.3601 79.6023 95.4807 79.3111 95.4807 79.0074V77.099H97.3891C97.5395 77.099 97.6883 77.0694 97.8272 77.0119C97.9662 76.9543 98.0924 76.8699 98.1988 76.7636C98.3051 76.6573 98.3895 76.5311 98.447 76.3921C98.5045 76.2532 98.5341 76.1043 98.5341 75.954C98.5341 75.8036 98.5045 75.6547 98.447 75.5158C98.3895 75.3768 98.3051 75.2506 98.1988 75.1443C98.0924 75.038 97.9662 74.9536 97.8272 74.8961C97.6883 74.8385 97.5395 74.8089 97.3891 74.8089Z" fill="white"/>
<path d="M1.16042 5.34349H3.06881V7.25189C3.06881 7.55557 3.18944 7.84682 3.40417 8.06155C3.61891 8.27629 3.91016 8.39692 4.21384 8.39692C4.51752 8.39692 4.80868 8.27629 5.02342 8.06155C5.23815 7.84682 5.35888 7.55557 5.35888 7.25189V5.34349H7.26727C7.57095 5.34349 7.86211 5.22286 8.07684 5.00813C8.29158 4.79339 8.4123 4.50214 8.4123 4.19846C8.4123 3.89478 8.29158 3.60353 8.07684 3.38879C7.86211 3.17406 7.57095 3.05343 7.26727 3.05343H5.35888V1.14503C5.35888 0.841353 5.23815 0.550102 5.02342 0.335366C4.80868 0.120631 4.51752 0 4.21384 0C3.91016 0 3.61891 0.120631 3.40417 0.335366C3.18944 0.550102 3.06881 0.841353 3.06881 1.14503V3.05343H1.16042C0.856733 3.05343 0.565483 3.17406 0.350747 3.38879C0.136011 3.60353 0.0153809 3.89478 0.0153809 4.19846C0.0153809 4.50214 0.136011 4.79339 0.350747 5.00813C0.565483 5.22286 0.856733 5.34349 1.16042 5.34349Z" fill="white"/>
<path d="M63.8167 9.92357H65.7251V11.832C65.7251 12.1356 65.8457 12.4269 66.0604 12.6416C66.2752 12.8564 66.5664 12.977 66.8701 12.977C67.1738 12.977 67.465 12.8564 67.6798 12.6416C67.8945 12.4269 68.0151 12.1356 68.0151 11.832V9.92357H69.9235C70.2272 9.92357 70.5184 9.80294 70.7332 9.58821C70.9479 9.37347 71.0686 9.08222 71.0686 8.77854C71.0686 8.47486 70.9479 8.18361 70.7332 7.96887C70.5184 7.75413 70.2272 7.6335 69.9235 7.6335H68.0151V5.72511C68.0151 5.42143 67.8945 5.13018 67.6798 4.91544C67.465 4.70071 67.1738 4.58008 66.8701 4.58008C66.5664 4.58008 66.2752 4.70071 66.0604 4.91544C65.8457 5.13018 65.7251 5.42143 65.7251 5.72511V7.6335H63.8167C63.513 7.6335 63.2217 7.75413 63.007 7.96887C62.7923 8.18361 62.6716 8.47486 62.6716 8.77854C62.6716 9.08222 62.7923 9.37347 63.007 9.58821C63.2217 9.80294 63.513 9.92357 63.8167 9.92357Z" fill="white"/>
<path d="M57.7097 9.92361C58.3421 9.92361 58.8548 9.41096 58.8548 8.77858C58.8548 8.14619 58.3421 7.63354 57.7097 7.63354C57.0773 7.63354 56.5647 8.14619 56.5647 8.77858C56.5647 9.41096 57.0773 9.92361 57.7097 9.92361Z" fill="white"/>
<path d="M53.1297 9.92361C53.762 9.92361 54.2747 9.41096 54.2747 8.77858C54.2747 8.14619 53.762 7.63354 53.1297 7.63354C52.4973 7.63354 51.9846 8.14619 51.9846 8.77858C51.9846 9.41096 52.4973 9.92361 53.1297 9.92361Z" fill="white"/>
<path d="M45.4961 9.92361C46.1285 9.92361 46.6411 9.41096 46.6411 8.77858C46.6411 8.14619 46.1285 7.63354 45.4961 7.63354C44.8637 7.63354 44.3511 8.14619 44.3511 8.77858C44.3511 9.41096 44.8637 9.92361 45.4961 9.92361Z" fill="white"/>
<path d="M36.336 9.92361C36.9683 9.92361 37.481 9.41096 37.481 8.77858C37.481 8.14619 36.9683 7.63354 36.336 7.63354C35.7036 7.63354 35.1909 8.14619 35.1909 8.77858C35.1909 9.41096 35.7036 9.92361 36.336 9.92361Z" fill="white"/>
<path d="M99.3584 7.74045C99.1623 7.65032 98.9445 7.61825 98.7308 7.64801C98.5171 7.67777 98.3163 7.76815 98.1523 7.90841L89.1752 15.374L84.7478 16.5648V7.25189C84.7478 5.32857 83.9837 3.48406 82.6237 2.12406C81.2637 0.764071 79.4193 0 77.4959 0H19.4809C17.5575 0 15.713 0.764071 14.353 2.12406C12.993 3.48406 12.229 5.32857 12.229 7.25189V12.2137H7.25188C5.3298 12.2177 3.48761 12.9831 2.12849 14.3422C0.769371 15.7013 0.00403376 17.5435 0 19.4656V98.8547C0.00132099 99.0718 0.0635098 99.2842 0.179564 99.4678C0.295618 99.6513 0.460869 99.7986 0.656475 99.8929C0.808769 99.9661 0.976081 100.003 1.14503 99.9997C1.40562 100.006 1.65989 99.9193 1.86254 99.7554L16.8091 87.786H56.1067C58.03 87.786 59.8746 87.022 61.2346 85.662C62.5946 84.302 63.3586 82.4574 63.3586 80.5341V75.5723H67.9387L82.9005 87.5417C83.0991 87.7022 83.3474 87.7886 83.6028 87.786C83.7543 87.7902 83.9051 87.7635 84.0459 87.7074C84.1867 87.6514 84.3146 87.5672 84.4218 87.46C84.529 87.3528 84.6131 87.2249 84.6692 87.0841C84.7252 86.9433 84.752 86.7925 84.7478 86.641V59.0227L89.1752 60.2136L98.1523 67.6792C98.3582 67.8497 98.6178 67.9416 98.8851 67.9387C99.049 67.9398 99.2109 67.9033 99.3584 67.8319C99.5603 67.7445 99.732 67.5992 99.8515 67.4145C99.9711 67.2297 100.033 67.0137 100.03 66.7937V8.7786C100.027 8.55982 99.963 8.3463 99.8442 8.16261C99.7253 7.97892 99.5569 7.83255 99.3584 7.74045ZM61.0838 80.5341C61.0858 81.1863 60.9588 81.8324 60.7101 82.4353C60.4615 83.0382 60.0961 83.586 59.635 84.0471C59.1738 84.5083 58.626 84.8737 58.0231 85.1223C57.4202 85.371 56.7741 85.4979 56.122 85.4959H16.4274C16.1656 85.4978 15.9123 85.5895 15.7098 85.7555L2.30535 96.4425V19.4656C2.30938 18.1509 2.83337 16.8912 3.76302 15.9615C4.69266 15.0319 5.95245 14.5078 7.26717 14.5038H12.2442V68.3204C12.2442 70.2437 13.0083 72.0883 14.3683 73.4483C15.7283 74.8083 17.5727 75.5723 19.4961 75.5723H61.0838V80.5341ZM82.4578 84.2593L69.0532 73.5723C68.8573 73.4051 68.6084 73.3131 68.3509 73.3128H19.4961C18.8439 73.3148 18.1978 73.1878 17.5949 72.9392C16.992 72.6905 16.4442 72.3251 15.9831 71.864C15.5219 71.4028 15.1565 70.855 14.9079 70.2521C14.6593 69.6492 14.5322 69.0031 14.5342 68.351V7.28245C14.5342 5.96649 15.057 4.70444 15.9875 3.77392C16.918 2.8434 18.1801 2.32063 19.4961 2.32063H77.5111C78.8271 2.32063 80.0891 2.8434 81.0197 3.77392C81.9502 4.70444 82.473 5.96649 82.473 7.28245V17.1908L63.389 22.3205L61.099 22.9465L49.8777 25.9999H30.183C28.6659 26.0039 27.2121 26.6085 26.1393 27.6813C25.0665 28.7541 24.4619 30.2079 24.4579 31.7251V43.9388C24.4579 45.4572 25.0611 46.9135 26.1348 47.9871C27.2085 49.0608 28.6646 49.664 30.183 49.664H39.725V60.7326C39.725 62.656 40.4891 64.5005 41.8491 65.8605C43.2091 67.2205 45.0536 67.9845 46.9769 67.9845H50.0303C50.334 67.9845 50.6252 67.8639 50.84 67.6492C51.0547 67.4344 51.1753 67.1432 51.1753 66.8395V50.0456L61.0838 52.7174L63.3739 53.3433L82.4578 58.4731V84.2593ZM40.87 47.3281H30.183C29.272 47.3281 28.3983 46.9662 27.7541 46.322C27.1099 45.6778 26.7479 44.804 26.7479 43.893V31.6793C26.7479 30.7682 27.1099 29.8945 27.7541 29.2503C28.3983 28.6061 29.272 28.2442 30.183 28.2442H48.8853V47.3281H40.87ZM48.8853 49.6182V65.6487H46.9769C46.3247 65.6507 45.6787 65.5237 45.0758 65.2751C44.4729 65.0264 43.925 64.661 43.4639 64.1999C43.0027 63.7387 42.6374 63.191 42.3887 62.588C42.1401 61.9851 42.0131 61.339 42.0151 60.6868V49.6182H48.8853ZM88.5798 57.6792L84.7478 56.6411L82.4578 56.0304L63.3739 50.8854L61.0838 50.2747L51.1753 47.6029V27.9847L61.0838 25.3129L63.3739 24.7022L82.4578 19.5572L84.7478 18.9465L88.5798 17.9084V57.6792ZM97.7401 64.351L90.8699 58.6258V16.9618L97.7401 11.2213V64.351Z" fill="white"/>
<path d="M43.9236 32.0609C43.6199 32.0609 43.3287 32.1815 43.1139 32.3963C42.8992 32.611 42.7786 32.9023 42.7786 33.2059V42.3662C42.7786 42.6699 42.8992 42.9612 43.1139 43.1759C43.3287 43.3906 43.6199 43.5113 43.9236 43.5113C44.2273 43.5113 44.5185 43.3906 44.7333 43.1759C44.948 42.9612 45.0686 42.6699 45.0686 42.3662V33.2059C45.0647 32.9035 44.9428 32.6145 44.7289 32.4007C44.515 32.1868 44.2261 32.0649 43.9236 32.0609Z" fill="white"/>
<path d="M31.6946 32.0609C31.3921 32.0649 31.1032 32.1868 30.8893 32.4007C30.6754 32.6145 30.5535 32.9035 30.5496 33.2059V42.3662C30.5496 42.6699 30.6702 42.9612 30.8849 43.1759C31.0997 43.3906 31.3909 43.5113 31.6946 43.5113C31.9983 43.5113 32.2894 43.3906 32.5042 43.1759C32.7189 42.9612 32.8396 42.6699 32.8396 42.3662V33.2059C32.8396 32.9023 32.7189 32.611 32.5042 32.3963C32.2894 32.1815 31.9983 32.0609 31.6946 32.0609Z" fill="white"/>
</mask>
<g mask="url(#mask0)">
<rect width="100" height="100" fill="url(#paint0_linear)" style="mix-blend-mode:darken"/>
</g>
<defs>
<linearGradient id="paint0_linear" x1="4.46428" y1="100" x2="100" y2="14.9425" gradientUnits="userSpaceOnUse">
<stop stop-color="#25BED2"/>
<stop offset="0.385417" stop-color="#2686E9"/>
<stop offset="0.739583" stop-color="#8B5BC5"/>
<stop offset="1" stop-color="#FF92CC"/>
</linearGradient>
</defs>
</svg>
