<?xml version="1.0" standalone="no"?>
<!DOCTYPE svg PUBLIC "-//W3C//DTD SVG 20010904//EN"
 "http://www.w3.org/TR/2001/REC-SVG-20010904/DTD/svg10.dtd">
<svg version="1.0" xmlns="http://www.w3.org/2000/svg"
 width="260.000000pt" height="260.000000pt" viewBox="0 0 260.000000 260.000000"
 preserveAspectRatio="xMidYMid meet">
<metadata>
Created by potrace 1.11, written by Peter Selinger 2001-2013
</metadata>
<g transform="translate(0.000000,260.000000) scale(0.100000,-0.100000)"
fill="#000000" stroke="none">
<path d="M1895 2593 c-510 -118 -842 -273 -1075 -503 -59 -58 -120 -134 -120
-149 0 -6 -3 -11 -7 -11 -13 0 -72 -132 -89 -199 -58 -232 42 -446 313 -670
29 -23 53 -40 53 -36 0 3 -24 30 -52 59 -222 222 -286 471 -181 695 15 31 30
60 35 66 130 167 207 233 417 359 186 112 351 185 539 240 104 31 266 66 305
66 15 0 27 3 27 8 0 11 -115 82 -131 81 -8 -1 -23 -3 -34 -6z"/>
<path d="M2098 2464 c-2 -1 -19 -5 -38 -8 -75 -12 -99 -18 -207 -46 -245 -65
-472 -162 -646 -276 -56 -36 -104 -70 -107 -73 -3 -4 -16 -15 -30 -24 -78 -53
-227 -221 -284 -319 -51 -89 -66 -210 -37 -315 13 -48 24 -57 18 -15 -6 41 19
134 54 205 158 315 559 562 1179 726 110 29 138 35 205 47 17 3 32 7 33 9 7 6
-109 92 -123 92 -8 0 -16 -1 -17 -3z"/>
<path d="M2192 2299 c-616 -105 -1254 -487 -1355 -814 -30 -97 -28 -124 11
-216 l20 -44 -1 61 c0 178 127 350 388 526 223 150 531 276 790 322 17 3 68
14 115 24 l85 18 36 70 c20 39 31 71 25 70 -6 0 -57 -8 -114 -17z"/>
<path d="M2120 2088 c-358 -65 -687 -212 -954 -426 -114 -91 -172 -156 -213
-239 -52 -106 -53 -218 -1 -317 12 -23 13 -19 11 50 -5 188 114 336 422 521
222 134 382 201 633 267 l122 32 35 55 c19 29 35 56 35 60 0 7 -38 6 -90 -3z"/>
<path d="M1640 1564 c0 -6 10 -19 23 -31 180 -161 277 -404 236 -595 -24 -113
-112 -255 -212 -344 -183 -162 -474 -323 -747 -415 -116 -38 -328 -89 -375
-89 -36 0 -31 -10 28 -53 46 -34 56 -37 92 -31 389 64 853 274 1074 487 190
182 284 414 241 598 -34 147 -161 327 -308 436 -20 15 -40 32 -44 38 -5 7 -8
6 -8 -1z"/>
<path d="M1630 1495 c26 -117 -26 -251 -144 -370 -192 -193 -639 -417 -969
-485 -54 -11 -59 -14 -92 -66 -51 -80 -52 -79 65 -58 14 2 39 7 55 10 268 47
603 198 845 380 262 198 339 355 271 549 -25 70 -43 94 -31 40z"/>
<path d="M1727 1334 c15 -166 -104 -347 -335 -512 -242 -173 -483 -276 -817
-351 -72 -16 -151 -32 -176 -36 -48 -7 -45 -4 -98 -112 l-21 -42 23 4 c12 2
40 6 62 9 325 48 705 193 978 373 234 154 360 290 415 447 29 84 27 134 -11
221 l-25 60 5 -61z"/>
<path d="M1830 1205 c-2 -163 -137 -374 -337 -528 -174 -133 -432 -257 -722
-346 -123 -38 -291 -81 -373 -96 -21 -4 -38 -9 -38 -12 0 -6 56 -53 88 -75 23
-15 44 -16 102 -2 14 3 39 8 55 11 101 16 373 100 482 149 132 60 172 80 248
125 243 143 473 385 515 540 19 70 13 219 -11 259 -6 11 -9 3 -9 -25z"/>
</g>
</svg>
