<svg width="70" height="70" viewBox="0 0 70 70" fill="none" xmlns="http://www.w3.org/2000/svg">
<path d="M30.8276 30.6753L35.3333 33.25L39.8391 30.6753L35.3333 28.1006L30.8276 30.6753ZM33.9655 40.8132V35.5833L29.5402 33.0086V38.2385L33.9655 40.8132ZM39.8391 5.49138L35.3333 2.91667L30.8276 5.49138L35.3333 8.06609L39.8391 5.49138ZM36.7012 15.6293L41.2069 13.0546V7.82471L36.7012 10.3994V15.6293ZM29.5402 13.0546L34.046 15.6293V10.3994L29.5402 7.82471V13.0546ZM36.7012 65.9971L41.2069 63.4224V58.1925L36.7012 60.7673V65.9971ZM29.5402 58.1925V63.4224L33.9655 65.9971V60.7673L29.5402 58.1925ZM35.3333 53.2845L30.8276 55.8592L35.3333 58.4339L39.8391 55.8592L35.3333 53.2845ZM58.5058 53.4454L63.0115 50.8707V45.6408L58.5058 48.2155V53.4454ZM51.3448 45.6408V50.8707L55.8506 53.4454V48.2155L51.3448 45.6408ZM57.138 40.7328L52.6322 43.3075L57.138 45.8822L61.6437 43.3075L57.138 40.7328ZM14.8966 53.4454L19.4023 50.8707V45.6408L14.8966 48.2155V53.4454V53.4454ZM7.65517 45.6408V50.8707L12.1609 53.4454V48.2155L7.65517 45.6408ZM13.5287 40.7328L9.02299 43.3075L13.5287 45.8822L18.0345 43.3075L13.5287 40.7328ZM20.6897 27.9397L14.8161 31.319V38.3994L21.1724 42.1006C21.6552 42.342 21.977 42.7443 21.977 43.3075V50.7902L28.092 54.3305L33.9655 50.9512V43.8707L27.6092 40.25C27.1264 40.0086 26.8046 39.6063 26.8046 39.0431V31.4799L20.6897 27.9397ZM14.8966 28.2615L19.4023 25.6868V20.4569L14.8966 23.0316V28.2615V28.2615ZM7.65517 20.4569V25.6868L12.1609 28.2615V23.0316L7.65517 20.4569ZM13.5287 15.4684L9.02299 18.1236L13.5287 20.6983L18.0345 18.1236L13.5287 15.4684ZM48.6092 25.6063V18.8477L42.4943 15.3075L36.0575 19.0086C35.8161 19.1695 35.5747 19.25 35.2529 19.25C34.931 19.25 34.6897 19.1695 34.4483 19.0086L28.0115 15.3075L21.8966 18.8477V25.6063L28.0115 29.1466L34.5287 25.3649C34.931 25.1236 35.4138 25.1236 35.8966 25.3649L42.4138 29.1466L48.6092 25.6063ZM55.8506 31.319L49.977 27.9397L43.8621 31.4799V39.0431C43.8621 39.5259 43.6207 39.9282 43.2184 40.1696L36.7012 43.9512V51.0316L42.5747 54.4109L48.6897 50.8707V43.3879C48.6897 43.1466 48.7701 42.9052 48.8506 42.7443C49.0115 42.5029 49.1724 42.342 49.4138 42.181L55.8506 38.4799V31.319V31.319ZM49.977 16.5948L56.4943 12.8132C56.8966 12.5718 57.3793 12.5718 57.8621 12.8132L64.9425 16.9167C65.4253 17.1581 65.7471 17.5603 65.7471 18.1236V26.4109C65.7471 26.8937 65.5058 27.296 65.1035 27.5374L58.5862 31.319V38.3994L64.9425 42.1006C65.4253 42.342 65.7471 42.7443 65.7471 43.3075V51.5948C65.7471 52.0776 65.5058 52.4799 65.1035 52.7213L58.023 56.8247C57.7816 56.9856 57.5402 57.0661 57.2989 57.0661C57.0575 57.0661 56.7356 56.9856 56.5747 56.8247L50.1379 53.1236L44.023 56.6638V64.1466C44.023 64.6293 43.7816 65.0316 43.3793 65.273L36.2989 69.3765C36.0575 69.5374 35.8161 69.6178 35.5747 69.6178C35.3333 69.6178 35.0115 69.5374 34.8506 69.3765L27.8506 65.3535C27.3678 65.1121 27.1264 64.7098 27.1264 64.1466V56.6638L20.6897 53.1236L14.2529 56.8247C14.0115 56.9856 13.7701 57.0661 13.5287 57.0661C13.2874 57.0661 12.9655 56.9856 12.8046 56.8247L5.8046 52.8017C5.32184 52.5604 5 52.1581 5 51.5948V43.3075C5 43.0661 5.08046 42.8247 5.16092 42.6638C5.32184 42.4224 5.48276 42.2615 5.72414 42.1006L12.1609 38.3994V31.319L5.8046 27.6178C5.32184 27.3764 5 26.9741 5 26.4109V18.1236C5 17.9626 5 17.8017 5.08046 17.7213C5.16092 17.5603 5.24138 17.3994 5.4023 17.2385L12.5632 13.1351C12.9655 12.8937 13.4483 12.8937 13.931 13.1351L20.4483 16.9167L26.5632 13.3764V5.49138C26.5632 4.92816 26.8851 4.52586 27.2874 4.28448L34.3678 0.181035C34.7701 -0.0603448 35.3333 -0.0603448 35.7356 0.181035L42.8966 4.28448C42.977 4.36494 43.0575 4.4454 43.1379 4.52586C43.1379 4.52586 43.1379 4.60632 43.2184 4.60632C43.6207 4.76724 43.7012 4.8477 43.7012 4.8477C43.7012 4.8477 43.7012 4.8477 43.7012 4.92816C43.7816 5.08908 43.7816 5.25 43.7816 5.41092V12.8937L49.977 16.5948ZM58.5058 28.2615L63.0115 25.6868V20.4569L58.5058 23.0316V28.2615ZM51.3448 20.4569V25.6868L55.8506 28.2615V23.0316L51.3448 20.4569ZM57.138 15.4684L52.6322 18.0431L57.138 20.6178L61.6437 18.0431L57.138 15.4684ZM36.7012 35.5833V40.8132L41.2069 38.2385V33.0086L36.7012 35.5833Z" fill="url(#paint0_linear)"/>
<defs>
<linearGradient id="paint0_linear" x1="7.71193" y1="69.6178" x2="72.5923" y2="19.2138" gradientUnits="userSpaceOnUse">
<stop stop-color="#25BED2"/>
<stop offset="0.385417" stop-color="#2686E9"/>
<stop offset="0.739583" stop-color="#8B5BC5"/>
<stop offset="1" stop-color="#FF92CC"/>
</linearGradient>
</defs>
</svg>
