<svg width="70" height="70" viewBox="0 0 70 70" fill="none" xmlns="http://www.w3.org/2000/svg">
<path d="M69.9997 35.1455C69.9997 33.666 69.1778 32.3358 67.8541 31.6731L62.6421 29.0671L67.8541 26.4612C67.8542 26.4611 67.8546 26.461 67.8546 26.461C69.178 25.7986 70 24.4682 70 22.9887C70 21.5096 69.1779 20.1792 67.8543 19.5165L38.4301 4.80481C36.282 3.73171 33.7174 3.73171 31.5689 4.80495L2.14525 19.5172C0.822087 20.1793 2.72721e-07 21.5096 2.72721e-07 22.9889C2.72721e-07 24.4683 0.82195 25.7986 2.14566 26.4612L7.35749 29.0671L2.14497 31.6734C0.82195 32.3358 2.72721e-07 33.666 2.72721e-07 35.1455C2.72721e-07 36.6249 0.82195 37.9551 2.14566 38.6177L7.35749 41.2237L2.14607 43.8294C0.823044 44.4904 0.000547146 45.8203 2.72721e-07 47.2998C-0.0005466 48.7802 0.821403 50.1113 2.14566 50.7741L31.5695 65.4861C32.6435 66.0227 33.8214 66.2908 34.9997 66.2908C36.1781 66.2908 37.3565 66.0224 38.4307 65.486L67.8545 50.774C69.1782 50.1116 70.0003 48.7804 69.9997 47.3C69.9992 45.8204 69.1767 44.4905 67.8541 43.8299L62.6421 41.2239L67.8546 38.6177C69.1778 37.9551 69.9997 36.6249 69.9997 35.1455ZM3.58544 23.5832C3.26565 23.4231 3.21807 23.1421 3.21807 22.989C3.21807 22.8359 3.26593 22.5549 3.58489 22.3952L33.0077 7.68382C33.6316 7.3721 34.3159 7.21652 35.0001 7.21652C35.6841 7.21652 36.3683 7.37224 36.9917 7.68368L66.4144 22.395C66.7339 22.5549 66.7818 22.8359 66.7818 22.989C66.7818 23.1421 66.7342 23.4231 66.4144 23.5832L36.9921 38.2942C35.7446 38.9174 34.2552 38.9174 33.0083 38.2943L3.58544 23.5832ZM66.4154 46.7083C66.7339 46.8674 66.7817 47.1478 66.7817 47.3011C66.7818 47.4546 66.7341 47.7361 66.4148 47.8958L36.992 62.6072C35.7444 63.2304 34.255 63.2305 33.0082 62.6074L3.58544 47.8959C3.26565 47.7358 3.21794 47.4545 3.21807 47.3009C3.21807 47.1479 3.26565 46.8674 3.58489 46.708L10.9556 43.0226L31.5695 53.3294C32.6435 53.866 33.8214 54.1341 34.9996 54.1341C36.178 54.1341 37.3563 53.8657 38.4305 53.3292L59.0438 43.0226L66.4154 46.7083ZM66.4147 35.7394L36.992 50.4508C35.7444 51.0739 34.255 51.0741 33.0082 50.4509L3.58544 35.7396C3.26565 35.5797 3.21807 35.2987 3.21807 35.1456C3.21807 34.9922 3.26565 34.7115 3.58489 34.5517L10.9556 30.8663L31.5695 41.1731C32.6434 41.7097 33.8215 41.9778 34.9996 41.9778C36.1777 41.9778 37.3562 41.7096 38.4304 41.1728L59.0439 30.8662L66.4142 34.5513C66.7339 34.7114 66.7815 34.9922 66.7815 35.1455C66.7817 35.2986 66.7339 35.5795 66.4147 35.7394Z" fill="url(#paint0_linear)"/>
<defs>
<linearGradient id="paint0_linear" x1="3.125" y1="66.2908" x2="63.037" y2="6.34836" gradientUnits="userSpaceOnUse">
<stop stop-color="#25BED2"/>
<stop offset="0.385417" stop-color="#2686E9"/>
<stop offset="0.739583" stop-color="#8B5BC5"/>
<stop offset="1" stop-color="#FF92CC"/>
</linearGradient>
</defs>
</svg>
