<svg width="70" height="70" viewBox="0 0 70 70" fill="none" xmlns="http://www.w3.org/2000/svg">
<path d="M23.0338 61.4987C21.9952 61.4987 20.9766 61.0942 20.2084 60.3304L10.8125 50.9897C9.64367 49.8277 9 48.28 9 46.6318C9 44.9835 9.64367 43.4358 10.8125 42.2739L20.2084 32.9332C21.362 31.7864 23.0787 31.4496 24.5815 32.0748C26.0788 32.6977 27.0465 34.1456 27.0465 35.7634V44.581H59.4492C60.582 44.581 61.5 45.499 61.5 46.6318C61.5 47.7645 60.582 48.6826 59.4492 48.6826H27.0461C24.7846 48.6826 22.9445 46.8425 22.9445 44.581V35.997L13.7044 45.183C13.3159 45.5691 13.102 46.0838 13.102 46.6318C13.102 47.1797 13.3159 47.6944 13.7044 48.0809L22.9445 57.2666V55.2455C22.9445 54.1127 23.8626 53.1947 24.9953 53.1947C26.128 53.1947 27.0461 54.1127 27.0461 55.2455V57.5001C27.0461 59.1179 26.0788 60.5655 24.5815 61.1883C24.0797 61.397 23.5545 61.4987 23.0338 61.4987V61.4987Z" fill="url(#paint0_linear)"/>
<path d="M47.4662 38.7341C46.9455 38.7341 46.4203 38.6324 45.9185 38.4237C44.4212 37.8008 43.4539 36.3533 43.4539 34.7351V32.4808C43.4539 31.3481 44.372 30.4296 45.5047 30.4296C46.6374 30.4296 47.5555 31.3481 47.5555 32.4808V34.502L56.7956 25.3159C57.1841 24.9298 57.398 24.4151 57.398 23.8671C57.398 23.3192 57.1841 22.8045 56.7956 22.418L47.5555 13.2323V21.8163C47.5555 24.0778 45.7154 25.9179 43.4539 25.9179H11.0508C9.91805 25.9179 9 24.9999 9 23.8671C9 22.7344 9.91805 21.8163 11.0508 21.8163H43.4539V12.9988C43.4539 11.381 44.4212 9.93303 45.9185 9.31018C47.4217 8.68494 49.138 9.02179 50.2916 10.1685L59.6875 19.5092C60.8563 20.6712 61.5 22.2189 61.5 23.8671C61.5 25.5154 60.8563 27.0631 59.6875 28.225L50.2916 37.5657C49.5234 38.3295 48.5048 38.7341 47.4662 38.7341V38.7341Z" fill="url(#paint1_linear)"/>
<defs>
<linearGradient id="paint0_linear" x1="11.3437" y1="61.4987" x2="37.2467" y2="20.7793" gradientUnits="userSpaceOnUse">
<stop stop-color="#25BED2"/>
<stop offset="0.385417" stop-color="#2686E9"/>
<stop offset="0.739583" stop-color="#8B5BC5"/>
<stop offset="1" stop-color="#FF92CC"/>
</linearGradient>
<linearGradient id="paint1_linear" x1="11.3437" y1="38.7341" x2="37.2467" y2="-1.9853" gradientUnits="userSpaceOnUse">
<stop stop-color="#25BED2"/>
<stop offset="0.385417" stop-color="#2686E9"/>
<stop offset="0.739583" stop-color="#8B5BC5"/>
<stop offset="1" stop-color="#FF92CC"/>
</linearGradient>
</defs>
</svg>
