<svg width="70" height="70" viewBox="0 0 70 70" fill="none" xmlns="http://www.w3.org/2000/svg">
<path d="M69.8049 37.6401C69.4427 35.9264 67.5896 34.547 64.2317 33.5299C61.4172 32.6799 57.8782 32.1783 53.9769 32.0947L53.6007 16.2389C53.0852 14.6783 51.2321 13.4104 48.0971 12.463C44.9622 11.5155 40.8798 11 36.5744 11C32.283 11 28.2285 11.5155 25.1632 12.463C22.6413 13.2432 19.6178 14.6923 19.6178 17.1863C19.6178 17.3396 19.6318 17.4928 19.6596 17.6461L19.8129 23.9996C18.7818 23.8045 17.7369 23.707 16.6779 23.707C7.48209 23.707 0 31.1891 0 40.385C0 49.5947 7.45422 57.0629 16.664 57.0629C20.4956 57.0629 24.2158 55.7393 27.1835 53.3288C29.8029 53.9419 32.8822 54.2763 36.1425 54.3041C36.8531 58.1636 45.2269 59.9331 53.0295 59.9331C57.3209 59.9331 61.3615 59.4037 64.4546 58.4562C67.0044 57.676 70 56.213 70 53.719L69.8049 37.6401ZM25.9435 15.1381C28.758 14.2743 32.5338 13.7866 36.5466 13.7866C40.5175 13.7866 44.4327 14.2743 47.2751 15.1381C50.3125 16.0577 50.9674 17.0052 50.9674 17.2002C50.9674 17.3953 50.3125 18.3428 47.2751 19.2623C44.4467 20.1123 40.5314 20.6139 36.5605 20.6139C32.715 20.6139 29.0645 20.168 26.2918 19.3599C23.2962 18.496 22.4463 17.5346 22.3766 17.2281C22.3766 17.2142 22.3627 17.2002 22.3487 17.1863C22.3487 16.8937 23.2822 15.9602 25.9435 15.1381ZM51.1903 20.6417V24.125C51.037 24.3619 50.9674 24.6266 50.9674 24.9053C50.9674 25.0864 50.3125 26.0478 47.289 26.9674C44.4606 27.8312 40.5454 28.3189 36.5744 28.3189C33.133 28.3189 29.7611 27.9566 27.086 27.2739C27.0442 27.26 27.0024 27.26 26.9745 27.246C25.6648 26.201 24.1879 25.365 22.6274 24.7799L22.5299 20.8507C23.4912 21.3384 24.4944 21.7285 25.5394 22.0072C28.5629 22.885 32.4781 23.3587 36.5884 23.3587C40.8937 23.3587 44.9761 22.8432 48.0971 21.8957C49.1561 21.617 50.201 21.1851 51.1903 20.6417ZM26.0131 50.6537C20.3424 55.8229 11.5506 55.4049 6.3953 49.7341C1.24005 44.0633 1.64411 35.2715 7.31489 30.1162C9.87858 27.7894 13.2086 26.4936 16.664 26.4936C18.0573 26.4936 19.4367 26.7026 20.7743 27.1067C22.5856 27.664 24.2715 28.5975 25.7066 29.8515C28.0474 31.8439 29.6497 34.5748 30.2767 37.5844C30.4578 38.504 30.5553 39.4514 30.5553 40.385C30.5693 44.3002 28.9112 48.0342 26.0131 50.6537ZM29.5521 50.9602C30.6807 49.5808 31.5864 48.0342 32.2273 46.3762C33.4256 46.4737 34.6795 46.5434 35.9753 46.5573C35.9475 46.7245 35.9475 46.8778 35.9753 47.045L36.0311 51.5315C33.8714 51.5036 31.7118 51.3225 29.5521 50.9602ZM33.2723 38.7269C34.0943 38.7826 34.9443 38.8105 35.8221 38.8244C35.836 38.922 35.8639 39.0195 35.8917 39.117L35.9475 43.7568C34.9443 43.7428 33.955 43.701 33.0215 43.6314C33.2305 42.5585 33.342 41.4578 33.342 40.371C33.342 39.8276 33.3141 39.2842 33.2723 38.7269ZM36.672 36.0518C36.6302 36.0518 36.6023 36.0518 36.5605 36.0518C35.209 36.0518 33.9271 35.996 32.7289 35.8985C32.2134 34.0454 31.3635 32.2898 30.2488 30.7154C32.3388 30.9801 34.4566 31.1194 36.5605 31.1194C40.8658 31.1194 44.9482 30.6039 48.0693 29.6564C49.156 29.3499 50.1871 28.918 51.1764 28.3746V32.0947C47.6931 32.1923 44.4188 32.6381 41.8133 33.3766C39.3611 34.0733 37.6473 34.965 36.672 36.0518ZM38.5947 38.1278C38.8316 37.6959 39.8766 36.8459 42.5936 36.0936C45.3244 35.3272 48.8774 34.9092 52.6115 34.9092H52.7229C56.7078 34.9092 60.6091 35.369 63.4375 36.2329C66.3635 37.1246 67.074 38.0163 67.1158 38.2532V38.2671C67.1019 38.4761 66.4192 39.4375 63.326 40.3571C60.4697 41.207 56.6939 41.6668 52.7229 41.6668C49.0307 41.6668 45.4777 41.2488 42.7468 40.5104C40.1274 39.7998 38.9988 38.9777 38.6644 38.504C38.6644 38.3786 38.6365 38.2532 38.5947 38.1278ZM67.2134 53.705C67.2134 53.9001 66.6003 54.8615 63.6326 55.7811C60.7902 56.6588 57.0283 57.1465 53.0155 57.1465C48.9889 57.1465 45.2408 56.6728 42.4403 55.8229C39.7791 55.0008 38.8873 54.0812 38.8873 53.7747C38.8873 53.7608 38.8873 53.7608 38.8873 53.7468L38.8734 52.8969L38.8316 49.748C39.9463 50.2914 41.1027 50.7094 42.301 51.002C45.2269 51.7683 48.9192 52.1863 52.7229 52.1863C57.0283 52.1863 61.0689 51.6708 64.1899 50.7233C65.207 50.4168 66.3774 49.9988 67.2134 49.4554V53.705ZM67.0322 45.9861C67.0322 46.1811 66.3913 47.1286 63.3957 48.0482C60.5394 48.912 56.7496 49.3858 52.709 49.3858C45.1294 49.3858 39.9741 47.6998 38.7759 46.3623L38.7201 41.9594C42.0084 43.6732 47.5398 44.4534 52.7229 44.4534C56.9586 44.4534 60.9853 43.9518 64.0924 43.0322C65.1791 42.7257 66.2241 42.3077 67.2273 41.7643V45.2476C67.2134 45.4566 67.0322 45.7074 67.0322 45.9861Z" fill="url(#paint0_linear)"/>
<path d="M16.6779 31.1753C11.5923 31.1753 7.48206 35.2995 7.48206 40.3712C7.48206 45.4428 11.6063 49.567 16.6779 49.567C21.7496 49.567 25.8738 45.4428 25.8738 40.3712C25.8598 35.2995 21.7496 31.1892 16.6779 31.1753ZM16.6779 46.7943C13.1389 46.7943 10.2687 43.9241 10.2687 40.3851C10.2687 36.8461 13.1389 33.9759 16.6779 33.9759C20.2169 33.9759 23.0872 36.8461 23.0872 40.3851C23.0872 43.9241 20.2169 46.7943 16.6779 46.7943Z" fill="url(#paint1_linear)"/>
<defs>
<linearGradient id="paint0_linear" x1="3.125" y1="59.9331" x2="48.8456" y2="1.70223" gradientUnits="userSpaceOnUse">
<stop stop-color="#25BED2"/>
<stop offset="0.385417" stop-color="#2686E9"/>
<stop offset="0.739583" stop-color="#8B5BC5"/>
<stop offset="1" stop-color="#FF92CC"/>
</linearGradient>
<linearGradient id="paint1_linear" x1="8.30311" y1="49.567" x2="25.8738" y2="33.9235" gradientUnits="userSpaceOnUse">
<stop stop-color="#25BED2"/>
<stop offset="0.385417" stop-color="#2686E9"/>
<stop offset="0.739583" stop-color="#8B5BC5"/>
<stop offset="1" stop-color="#FF92CC"/>
</linearGradient>
</defs>
</svg>
