<svg width="32" height="41" viewBox="0 0 32 41" fill="none" xmlns="http://www.w3.org/2000/svg">
<path d="M25.4131 8.87967C22.0252 9.84824 17.0262 11.874 12.4471 16.0264C7.84527 20.3725 10.9694 24.2486 11.0017 24.287C11.0017 24.287 9.31522 21.1658 13.3941 17.3203C13.4459 17.2748 18.6527 12.7623 26.2252 10.5977C27.1907 10.3217 28.1668 10.092 29.1263 9.91494L29.193 9.90273L30.412 7.91992L30.1128 7.94117C30.0938 7.94276 28.1913 8.08542 25.4131 8.87967Z" fill="#5928B1"/>
<path d="M30.625 3.32258C29.845 2.66376 29.0658 2.14239 29.058 2.13719L29.011 2.10645L28.9557 2.113C28.9347 2.11571 26.8326 2.37527 23.9375 3.20298C18.7577 4.68341 11.7915 7.7198 8.01939 13.7733C6.22767 16.5233 7.66975 19.8136 7.66975 19.8136L7.62626 18.9761C7.62158 18.8873 7.37406 10.0164 25.4942 4.83602C27.0803 4.38249 28.7837 3.96468 30.5581 3.59298L30.8687 3.5281L30.625 3.32258Z" fill="#764BC4"/>
<path d="M31.7202 4.48086C31.6968 4.48335 29.3131 4.73793 25.9921 5.68705C22.4773 6.69202 17.3595 8.64068 12.9403 12.2156C10.3344 14.247 8.68519 16.6978 8.41515 18.94C8.28269 20.0342 9.56064 22.3569 9.56064 22.3569L9.29194 21.5319C9.27968 21.4943 8.13775 17.7365 13.9246 13.3764C17.167 10.9328 20.5462 9.2604 24.558 8.11367C26.6263 7.52245 28.608 7.13402 30.7986 6.72322L30.8758 6.70875L30.9092 6.63708C31.0747 6.28099 31.8638 4.72165 31.8721 4.70605L32.0001 4.45215L31.7202 4.48086Z" fill="#764BC4"/>
<path d="M6.39416 15.8898C6.61247 12.3689 9.26961 9.11571 14.2978 6.21746C16.9476 4.55729 19.9096 3.25298 23.1012 2.34048C25.8081 1.56657 28.0962 1.33551 28.0962 1.33551L26.2561 0C26.2391 0.00203481 24.5431 0.211168 22.1194 0.904132C6.57813 5.34702 4.65217 13.002 4.82409 16.079C5.12513 21.4439 11.4206 25.2592 11.4206 25.2592C11.4206 25.2592 6.06927 21.136 6.39416 15.8898Z" fill="#BBA5E1"/>
<path d="M6.58694 32.1203C9.97482 31.1518 14.9738 29.126 19.5529 24.9736C24.1547 20.6275 21.0306 16.7514 20.9983 16.713C20.9983 16.713 22.6848 19.8342 18.6059 23.6797C18.5541 23.7252 13.3473 28.2377 5.77481 30.4023C4.80927 30.6783 3.83324 30.908 2.87372 31.0851L2.80704 31.0973L1.58796 33.0801L1.88721 33.0588C1.90617 33.0572 3.80871 32.9146 6.58694 32.1203Z" fill="#5928B1"/>
<path d="M1.37503 37.6774C2.15505 38.3362 2.93418 38.8576 2.94198 38.8628L2.98903 38.8936L3.04433 38.887C3.06529 38.8843 5.16742 38.6247 8.06249 37.797C13.2423 36.3166 20.2085 33.2802 23.9806 27.2267C25.7723 24.4767 24.3303 21.1864 24.3303 21.1864L24.3737 22.0239C24.3784 22.1127 24.6259 30.9836 6.5058 36.164C4.91968 36.6175 3.21626 37.0353 1.44193 37.407L1.1313 37.4719L1.37503 37.6774Z" fill="#764BC4"/>
<path d="M0.279764 36.5191C0.303177 36.5167 2.68694 36.2621 6.00792 35.313C9.52268 34.308 14.6405 32.3593 19.0597 28.7844C21.6656 26.753 23.3148 24.3022 23.5849 22.06C23.7173 20.9658 22.4394 18.6431 22.4394 18.6431L22.7081 19.4681C22.7203 19.5057 23.8623 23.2635 18.0754 27.6236C14.833 30.0672 11.4538 31.7396 7.44197 32.8863C5.37374 33.4776 3.39203 33.866 1.20138 34.2768L1.12423 34.2913L1.09078 34.3629C0.925318 34.719 0.136158 36.2784 0.127907 36.294L-8.7738e-05 36.5479L0.279764 36.5191Z" fill="#764BC4"/>
<path d="M25.6058 25.1102C25.3875 28.6311 22.7304 31.8843 17.7022 34.7825C15.0524 36.4427 12.0904 37.747 8.89879 38.6595C6.19192 39.4334 3.90382 39.6645 3.90382 39.6645L5.74393 41C5.76088 40.998 7.45694 40.7888 9.88061 40.0959C25.4219 35.653 27.3478 27.998 27.1759 24.921C26.8749 19.5561 20.5794 15.7408 20.5794 15.7408C20.5794 15.7408 25.9307 19.864 25.6058 25.1102Z" fill="#BBA5E1"/>
</svg>
